<svg version="1.1" id="Layer_1" xmlns="http://www.w3.org/2000/svg" xmlns:xlink="http://www.w3.org/1999/xlink" x="0px" y="0px"
	 width="100%" viewBox="0 0 1280 709" enable-background="new 0 0 1280 709" xml:space="preserve">
<path fill="#FFFFFF" opacity="1.000000" stroke="none" 
	d="
M837.000000,710.000000 
	C558.034973,710.000000 279.569946,710.000000 1.052464,710.000000 
	C1.052464,473.731323 1.052464,237.462646 1.052464,1.096985 
	C427.548401,1.096985 854.096863,1.096985 1280.822632,1.096985 
	C1280.822632,237.333221 1280.822632,473.666595 1280.822632,710.000000 
	C1133.129272,710.000000 985.314636,710.000000 837.000000,710.000000 
M1259.000000,266.500000 
	C1259.000000,205.405472 1259.000000,144.310959 1259.000000,83.286133 
	C847.690125,83.286133 436.955597,83.286133 26.287868,83.286133 
	C26.287868,269.309143 26.287868,455.045868 26.287868,640.713623 
	C437.310211,640.713623 848.044678,640.713623 1259.000000,640.713623 
	C1259.000000,516.118286 1259.000000,391.809143 1259.000000,266.500000 
z"/>
<path fill="#000000" opacity="1.000000" stroke="none" 
	d="
M1259.000000,267.000000 
	C1259.000000,391.809143 1259.000000,516.118286 1259.000000,640.713623 
	C848.044678,640.713623 437.310211,640.713623 26.287868,640.713623 
	C26.287868,455.045868 26.287868,269.309143 26.287868,83.286133 
	C436.955597,83.286133 847.690125,83.286133 1259.000000,83.286133 
	C1259.000000,144.310959 1259.000000,205.405472 1259.000000,267.000000 
z"/>
</svg>