<svg version="1.1" id="Layer_1" xmlns="http://www.w3.org/2000/svg" xmlns:xlink="http://www.w3.org/1999/xlink" x="0px" y="0px"
	 width="100%" viewBox="0 0 1024 560" enable-background="new 0 0 1024 560" xml:space="preserve">
<path fill="#000000" opacity="1.000000" stroke="none" 
	d="
M664.521545,366.518799 
	C631.426697,339.473663 611.112122,305.451172 604.525085,263.361450 
	C593.636536,193.786255 631.456360,124.120689 694.746460,93.813812 
	C722.855103,80.353851 752.300720,75.196335 783.105896,78.845764 
	C817.441101,82.913399 847.817139,96.212997 873.642212,119.555275 
	C883.220398,128.212601 891.566833,137.853989 898.969727,148.385391 
	C908.084534,161.352295 906.750366,182.425644 891.277039,193.253571 
	C877.219971,203.090393 858.107056,199.928284 847.461609,185.277435 
	C835.218872,168.428391 820.810364,154.444809 801.692688,145.347916 
	C761.841858,126.385422 717.230957,140.408478 691.396912,171.877991 
	C674.793884,192.102859 665.661865,215.083481 666.081604,241.709763 
	C666.469238,266.303894 675.355774,287.578735 690.449585,306.318604 
	C710.027100,330.625305 735.845703,343.298065 767.084900,342.491516 
	C793.686401,341.804718 815.594788,329.683502 833.819214,310.589508 
	C839.820312,304.302124 844.736267,297.161621 850.185059,290.440735 
	C858.024292,280.771362 868.150818,276.019501 880.570068,278.252777 
	C893.691589,280.612335 902.663391,288.376587 905.720398,301.574799 
	C907.632935,309.832092 907.039124,318.159607 902.139832,325.626526 
	C874.870422,367.187927 836.902649,392.795959 787.627441,399.826019 
	C742.295227,406.293610 701.078613,395.085297 664.521545,366.518799 
M828.712891,96.854309 
	C811.118408,88.780090 792.518494,84.447388 773.313171,83.407349 
	C743.760498,81.806961 715.878662,88.141678 689.776917,102.407066 
	C656.039001,120.845856 632.702637,148.261948 618.641113,183.782104 
	C612.482117,199.340118 609.206360,215.430283 608.601440,232.304428 
	C608.224548,242.817490 608.009827,253.329941 609.705444,263.543549 
	C614.227844,290.783112 624.535339,316.059906 642.437195,337.100037 
	C684.290283,386.290253 737.257935,405.916107 800.900208,391.658478 
	C839.965454,382.906738 871.163940,361.335571 894.029541,328.169464 
	C898.246704,322.052643 901.901794,315.628235 901.554077,307.956757 
	C901.057129,296.993134 893.437561,287.442505 883.454590,284.548096 
	C871.954468,281.213837 861.226929,284.703491 854.131348,294.030640 
	C847.372803,302.914734 840.500122,311.679352 832.357178,319.404907 
	C811.257690,339.422852 786.245361,349.785553 757.208374,347.847839 
	C735.235413,346.381470 715.470764,337.895416 699.062744,322.884705 
	C677.683167,303.325897 663.847107,279.517578 661.065552,250.272034 
	C658.506104,223.361313 665.354370,198.748505 681.091919,176.721680 
	C699.669434,150.720078 724.226074,134.384216 756.579895,131.784134 
	C783.661072,129.607803 807.293640,138.635422 827.976257,155.908173 
	C837.513306,163.872879 845.104492,173.536774 852.561340,183.392548 
	C863.303284,197.590195 885.576233,196.491852 895.185547,181.519775 
	C902.091492,170.759705 900.606079,160.291870 893.671143,150.249603 
	C877.271240,126.501434 855.721741,108.932724 828.712891,96.854309 
z"/>
<path fill="#000000" opacity="1.000000" stroke="none" 
	d="
M73.583504,89.475128 
	C93.267677,78.052887 114.424576,76.427055 136.194427,77.134796 
	C153.362534,77.692940 169.826523,80.570374 185.557816,87.725044 
	C207.049179,97.499413 222.967850,113.088562 231.388153,134.880676 
	C239.637573,156.230530 240.266037,178.614532 231.739746,200.222488 
	C226.366348,213.840225 216.611374,224.405167 203.775833,231.840347 
	C200.361801,233.817993 196.957672,235.812790 193.596725,237.771896 
	C194.423447,240.488663 196.498901,240.963074 198.218109,241.833450 
	C221.890060,253.817886 234.335052,272.989838 236.680756,299.488739 
	C238.233231,317.026398 236.146805,333.583282 228.615875,349.503082 
	C220.702576,366.231201 208.184631,378.397064 192.107010,387.196808 
	C174.796082,396.671509 156.001358,400.395935 136.571320,401.495361 
	C108.836365,403.064728 82.853905,397.959534 60.578976,380.174957 
	C40.558628,364.190521 27.420874,343.424835 20.473309,318.964661 
	C15.982351,303.153381 29.322001,284.963287 45.721363,282.655762 
	C62.705067,280.266022 76.325706,291.399323 80.181740,303.649017 
	C83.077354,312.847626 86.301178,321.876282 92.718567,329.504150 
	C103.284157,342.062683 116.873314,346.566437 132.721359,345.393005 
	C142.411057,344.675629 151.914917,343.017670 159.990173,336.990021 
	C170.382477,329.232849 175.223511,319.031006 174.085495,305.905487 
	C173.448532,298.558777 172.452271,291.536102 169.034958,284.777435 
	C164.351715,275.515045 156.290253,270.862732 147.237793,267.657135 
	C136.355515,263.803528 124.982254,262.174194 113.412689,262.281036 
	C109.951553,262.313019 106.912064,261.368378 104.036530,259.461761 
	C99.498131,256.452606 97.239281,252.549255 97.495842,246.897491 
	C97.828026,239.579590 97.524704,232.234909 97.607765,224.903030 
	C97.686470,217.955917 103.001709,212.264862 110.009811,211.735199 
	C121.111038,210.896164 132.182816,209.847107 143.108170,207.643982 
	C161.003311,204.035370 172.708954,193.467346 174.161850,173.503326 
	C175.893356,149.710968 161.310349,137.357269 140.651718,133.419479 
	C129.328476,131.261108 118.136787,131.719482 107.491867,136.896149 
	C93.811501,143.548965 86.502846,155.337250 81.519333,168.995392 
	C76.823837,181.864166 67.621437,189.405853 54.063519,190.120819 
	C40.997444,190.809875 30.906057,184.936142 25.005356,172.900482 
	C21.222956,165.185532 20.778809,156.881226 23.873613,149.117966 
	C33.871296,124.039009 49.105469,103.085678 73.583504,89.475128 
M122.190796,350.546051 
	C107.828835,349.566406 96.853226,342.607574 87.778404,331.743713 
	C80.726318,323.301331 77.768959,313.061981 74.010109,303.138824 
	C70.826523,294.734314 62.041271,288.335754 52.918980,287.978882 
	C41.586071,287.535522 32.426071,292.804352 28.078987,301.398834 
	C23.772039,309.913940 24.830271,317.880585 28.366251,326.310394 
	C38.252720,349.879852 51.885567,370.169189 74.725082,383.232819 
	C87.689964,390.648407 101.598625,395.527618 116.258209,396.273651 
	C131.765976,397.062897 147.447311,396.641998 162.764862,392.607300 
	C179.435440,388.216187 195.270233,381.893585 207.541428,369.593872 
	C229.114746,347.970428 236.222183,321.594330 230.230118,291.756744 
	C227.699036,279.153290 222.889832,267.510681 213.269760,258.472015 
	C207.397308,252.954453 200.331604,249.184311 193.344955,245.283386 
	C185.191452,240.730927 185.287048,236.475937 193.204025,231.706802 
	C199.180801,228.106445 205.545181,225.085983 210.802612,220.363617 
	C226.979660,205.832901 232.822784,187.196075 232.066391,166.086319 
	C231.217300,142.389313 222.851318,121.867081 204.754181,106.135063 
	C192.488663,95.472549 177.892380,88.838036 162.064499,85.426964 
	C145.726288,81.905907 129.182510,81.769463 112.488564,83.111053 
	C94.793991,84.533051 79.225830,90.964676 65.135612,101.168869 
	C48.166809,113.457726 37.305325,130.572906 29.320267,149.544144 
	C25.254044,159.204834 26.930239,168.761017 33.692726,176.694672 
	C39.593426,183.617264 47.748310,186.098801 56.727585,184.591141 
	C68.237999,182.658524 74.063507,174.856491 77.815414,164.345917 
	C83.026604,149.747375 92.134438,138.224091 106.596596,131.461990 
	C117.209206,126.499825 128.338394,127.314629 139.444077,128.188400 
	C147.154007,128.794998 154.644928,130.935730 161.034882,135.311356 
	C174.718994,144.681747 181.202927,157.347122 179.493027,174.489853 
	C177.416687,195.306046 165.352402,208.908325 145.057175,212.587067 
	C134.395874,214.519531 123.788773,216.138779 112.951157,216.530075 
	C105.765549,216.789490 102.454536,220.570312 102.353249,227.711288 
	C102.268173,233.708801 102.253731,239.709946 102.359222,245.706818 
	C102.482651,252.723846 106.132782,256.540955 113.114693,256.760315 
	C120.270035,256.985138 127.437904,257.163483 134.429459,258.753723 
	C142.031052,260.482727 149.550247,262.310516 156.676224,265.882141 
	C171.573166,273.348694 177.262665,286.211639 179.356827,301.655609 
	C180.721909,311.722717 179.520538,321.273529 173.881180,329.820038 
	C161.730972,348.233765 143.143051,351.418549 122.190796,350.546051 
z"/>
<path fill="#000000" opacity="1.000000" stroke="none" 
	d="
M288.734772,94.557388 
	C291.786957,85.838234 296.076263,82.833855 304.874908,82.833168 
	C341.030884,82.830345 377.190186,82.522392 413.341736,82.919991 
	C441.614105,83.230927 468.944397,88.353615 493.968201,102.402374 
	C527.978943,121.496529 550.505676,149.648483 561.386230,187.276947 
	C567.673950,209.021774 569.393066,231.236160 567.939758,253.498291 
	C565.427673,291.981537 553.197937,326.738098 524.632080,354.249054 
	C501.914307,376.127930 474.641632,388.527771 443.675934,393.324127 
	C433.660675,394.875427 423.686462,395.699890 413.469452,395.569977 
	C377.985687,395.118835 342.492676,395.390656 307.003204,395.399841 
	C304.350647,395.400513 301.629517,395.904785 299.059326,395.470398 
	C293.020264,394.449799 288.681305,388.121643 288.680847,380.910126 
	C288.675995,302.100159 288.673157,223.290176 288.673401,144.480209 
	C288.673462,127.985374 288.688385,111.490547 288.734772,94.557388 
M544.373901,319.890228 
	C552.339783,305.101288 557.820801,289.285095 560.353027,272.836945 
	C564.426697,246.376770 564.121704,219.849792 557.524414,193.628311 
	C551.592896,170.053253 541.012512,148.923584 523.915771,131.569046 
	C494.255768,101.461815 457.143066,88.999054 415.760498,88.348000 
	C379.452698,87.776779 343.128723,88.225616 306.811890,88.236298 
	C296.233063,88.239410 293.721802,90.866600 293.915497,101.605522 
	C293.942535,103.104378 293.925751,104.604050 293.926697,106.103348 
	C293.960114,160.054749 294.008118,214.006149 294.021393,267.957550 
	C294.030579,305.273804 294.024353,342.590088 293.946136,379.906219 
	C293.931000,387.116730 297.161591,390.593323 304.469727,390.593689 
	C339.453827,390.595337 374.438080,390.517731 409.421906,390.615814 
	C425.608124,390.661163 441.550079,389.034332 457.250732,385.016174 
	C494.983734,375.359314 524.706055,354.970245 544.373901,319.890228 
z"/>
<path fill="#000000" opacity="1.000000" stroke="none" 
	d="
M406.849670,470.085388 
	C406.847992,468.267120 406.817719,466.934357 406.855408,465.603516 
	C407.026855,459.547821 409.631195,457.720154 415.103699,460.135864 
	C416.655640,460.820892 417.691101,460.843140 419.230499,460.239258 
	C432.133057,455.178314 442.834076,461.253448 445.475372,475.005554 
	C445.658386,475.958405 446.003815,476.880066 446.454163,478.442047 
	C447.339813,463.656464 457.796234,455.475586 470.696533,458.795135 
	C478.564270,460.819702 484.708405,469.615723 484.080200,477.706635 
	C483.834015,480.877502 482.248840,482.070374 479.235168,482.036865 
	C473.575623,481.973969 467.914520,481.975189 462.254974,482.036774 
	C460.487854,482.055969 458.582214,481.578064 457.029358,482.907776 
	C458.084473,489.726532 465.337982,492.884613 471.262299,489.080322 
	C472.499786,488.285706 473.479279,487.091278 474.584991,486.089142 
	C477.017181,483.884857 479.304169,485.022583 481.293762,486.659912 
	C483.453735,488.437469 482.594299,490.423584 481.234406,492.388275 
	C474.111847,502.678589 454.405396,503.038116 447.911133,488.138397 
	C447.253784,486.630188 446.790955,485.037170 445.992889,482.795471 
	C444.189545,489.511078 441.331116,494.948395 435.186768,497.791504 
	C429.040466,500.635559 422.967499,499.938080 416.549377,496.530579 
	C416.549377,500.793488 416.414581,504.409210 416.587006,508.010254 
	C416.762360,511.672516 415.696442,513.572632 411.561005,513.480957 
	C407.209778,513.384460 406.831848,510.843079 406.842712,507.531555 
	C406.883057,495.211761 406.854889,482.891724 406.849670,470.085388 
M421.818909,469.346008 
	C419.919983,470.557770 418.627777,472.304779 417.952515,474.385651 
	C416.422272,479.101410 416.774536,483.665985 420.294556,487.389313 
	C422.937225,490.184570 426.412872,490.611328 429.951233,489.208008 
	C434.947357,487.226440 437.239685,480.041504 434.857635,474.206146 
	C432.601440,468.679108 428.342712,466.891998 421.818909,469.346008 
M459.337006,472.325226 
	C463.480469,473.156860 467.580963,473.038605 471.964996,472.187866 
	C467.394714,466.489807 462.967468,466.485931 459.337006,472.325226 
z"/>
<path fill="#000000" opacity="1.000000" stroke="none" 
	d="
M84.131851,505.230042 
	C78.617836,509.028198 73.287971,509.114014 67.872627,506.000885 
	C55.186783,498.708191 42.398685,491.584473 29.865677,484.037445 
	C18.919577,477.446045 19.472315,465.310883 30.557230,459.013092 
	C42.991051,451.949005 55.270523,444.613770 67.653091,437.458710 
	C73.547974,434.052429 79.835762,434.471161 84.341766,438.389343 
	C91.024246,444.200104 90.129974,455.345398 82.411110,460.255432 
	C76.393181,464.083496 70.179359,467.603638 63.635914,471.509308 
	C67.122055,474.883087 71.355309,476.372345 74.981949,478.754059 
	C77.063126,480.120850 79.351044,481.172485 81.434883,482.535645 
	C90.114792,488.213745 91.255501,496.905060 84.131851,505.230042 
M65.687424,479.864899 
	C57.296886,474.834412 49.281864,469.175385 40.515778,464.774567 
	C35.971130,462.493042 31.065870,463.664398 28.753113,467.514709 
	C26.255692,471.672455 27.340828,476.075287 32.176773,478.927795 
	C45.051010,486.521667 58.010498,493.975677 71.047623,501.286377 
	C75.898125,504.006378 80.370972,502.664856 82.565552,498.431030 
	C84.742485,494.231232 83.229797,490.117035 78.382622,487.239105 
	C74.383461,484.864655 70.346611,482.553711 65.687424,479.864899 
M49.047306,454.577423 
	C47.097130,456.008606 44.387730,456.338806 42.671585,459.118011 
	C47.473682,461.864990 52.127213,464.632904 56.889629,467.198730 
	C58.774212,468.214111 60.431103,466.764160 61.969212,465.895294 
	C67.468208,462.788971 72.918640,459.595337 78.354996,456.379852 
	C83.505051,453.333679 85.008766,448.688995 82.349693,444.289062 
	C80.112541,440.587280 75.090607,439.628357 70.410240,442.257141 
	C63.455254,446.163452 56.593571,450.235901 49.047306,454.577423 
z"/>
<path fill="#000000" opacity="1.000000" stroke="none" 
	d="
M155.705872,456.230957 
	C158.566422,457.991180 161.148987,459.508453 163.647415,461.153534 
	C170.497864,465.664307 170.194672,479.119232 161.903473,483.628510 
	C149.339340,490.461731 137.152451,497.988495 124.804382,505.219055 
	C122.496826,506.570282 120.136452,507.817322 117.437180,508.163330 
	C110.501015,509.052490 104.806770,505.802521 102.656319,499.767181 
	C100.324966,493.224182 102.474266,486.628448 108.575264,482.814545 
	C114.492538,479.115509 120.618462,475.750275 127.042809,472.011475 
	C124.084030,468.721313 120.088531,467.407013 116.736549,465.197540 
	C114.237923,463.550598 111.526802,462.229645 108.985603,460.642914 
	C102.158127,456.379883 99.830948,448.525055 103.429977,442.121704 
	C107.259598,435.308105 115.544594,433.200562 122.916420,437.370789 
	C133.784454,443.518738 144.569244,449.813873 155.705872,456.230957 
M130.490402,448.048615 
	C126.741066,445.883881 123.096710,443.503723 119.214287,441.612152 
	C114.913597,439.516663 110.292984,440.993439 108.344711,444.641998 
	C106.183083,448.690094 107.046082,453.417572 110.984718,455.594543 
	C124.090446,462.838318 136.608429,471.049438 149.513367,478.616333 
	C154.251816,481.394806 159.707565,480.103455 162.073425,476.049225 
	C164.533508,471.833618 162.905487,466.769287 157.957977,463.879974 
	C149.043243,458.673859 140.063141,453.579681 130.490402,448.048615 
M108.985069,489.664856 
	C106.643677,493.240692 106.254082,497.028656 109.219597,500.215210 
	C112.325218,503.552277 116.308456,503.473755 120.209846,501.342834 
	C123.856781,499.350952 127.524834,497.384277 131.064102,495.211823 
	C136.771530,491.708557 142.978348,488.968536 148.688858,484.241364 
	C143.646423,481.260040 139.114197,478.569580 134.569656,475.900116 
	C133.248123,475.123871 131.994766,475.552704 130.806686,476.266266 
	C123.690704,480.539795 116.579872,484.821869 108.985069,489.664856 
z"/>
<path fill="#000000" opacity="1.000000" stroke="none" 
	d="
M235.948410,490.948669 
	C230.095474,497.533386 222.530975,498.702728 214.753342,498.803986 
	C196.403488,499.042786 199.980011,499.831482 199.697922,484.663177 
	C199.536850,476.001801 199.606979,467.334412 199.683304,458.670685 
	C199.826141,442.455780 197.633728,445.017151 213.835297,444.741058 
	C218.035568,444.669495 222.168427,445.001587 226.143387,446.404755 
	C244.440674,452.863647 249.774597,476.394897 235.948410,490.948669 
M215.667923,454.433319 
	C213.232101,454.922516 209.401138,452.996429 209.354279,457.748383 
	C209.262558,467.049988 209.329681,476.353180 209.346558,485.655731 
	C209.349106,487.057953 209.711624,488.169891 211.275131,488.744171 
	C217.598404,491.066589 228.450882,486.686554 231.563858,480.474609 
	C237.673340,468.283142 231.203476,457.152618 215.667923,454.433319 
z"/>
<path fill="#000000" opacity="1.000000" stroke="none" 
	d="
M905.637817,496.855042 
	C901.707092,499.556396 897.624878,500.375214 893.419128,499.564026 
	C889.207825,498.751862 885.346741,496.955597 880.726196,498.704437 
	C878.053894,499.715881 875.682373,497.800079 875.692200,494.249908 
	C875.733521,479.259979 875.713135,464.269897 875.703247,449.279846 
	C875.700928,445.795502 877.648926,444.693665 880.843262,444.736420 
	C884.036316,444.779175 885.330139,446.350677 885.287903,449.405579 
	C885.237549,453.050018 885.276001,456.695618 885.276001,461.063385 
	C891.543274,458.027374 897.451721,457.078827 903.421631,459.913910 
	C907.487976,461.844971 910.386963,465.005249 912.407654,468.962250 
	C917.334900,478.611267 914.897156,488.954315 905.637817,496.855042 
M903.669434,474.936188 
	C901.872131,470.240784 898.721191,467.495087 893.445801,468.292786 
	C889.338440,468.913879 886.210388,473.020477 885.672485,478.075989 
	C885.131592,483.159393 888.627075,488.585663 893.109619,489.621155 
	C897.846436,490.715393 901.981079,487.889435 903.930664,482.417450 
	C904.754395,480.105377 904.807739,477.909058 903.669434,474.936188 
z"/>
<path fill="#000000" opacity="1.000000" stroke="none" 
	d="
M659.171753,487.929382 
	C659.171448,489.415924 659.183960,490.413635 659.174377,491.411163 
	C659.106079,498.490387 656.985962,500.026337 650.395691,497.457123 
	C649.137573,496.966644 648.354248,497.052277 647.208801,497.506989 
	C637.257019,501.457703 629.444458,499.449158 623.874512,491.605164 
	C618.487488,484.018799 618.983337,472.095001 624.941895,465.142731 
	C630.246094,458.953949 636.745667,456.859924 644.609680,459.271637 
	C645.866577,459.657135 647.143555,459.977020 648.614990,460.383545 
	C650.417114,457.544525 649.407410,454.497375 649.602417,451.634918 
	C649.822754,448.400421 648.825439,444.658722 654.214233,444.748108 
	C659.093689,444.829041 659.272522,447.927917 659.251465,451.527069 
	C659.181763,463.497955 659.193726,475.469330 659.171753,487.929382 
M632.285400,471.941559 
	C631.691406,473.307831 630.822571,474.622498 630.554504,476.049988 
	C629.715149,480.520203 630.380981,484.751923 633.929688,487.928772 
	C636.490112,490.220917 639.702759,490.561951 642.825500,489.285278 
	C647.214294,487.491119 648.794312,483.721588 648.881592,479.278809 
	C648.972961,474.628418 647.332703,470.742157 642.914673,468.653137 
	C638.871826,466.741486 635.514526,468.166809 632.285400,471.941559 
z"/>
<path fill="#000000" opacity="1.000000" stroke="none" 
	d="
M528.318848,469.696869 
	C522.884277,464.795441 522.221863,458.794556 524.722351,453.019440 
	C527.633972,446.294647 533.678528,443.556793 541.000732,443.707611 
	C547.906799,443.849823 553.141418,446.800140 556.522217,452.835510 
	C557.665100,454.875732 557.236267,456.772003 555.104553,457.936462 
	C552.786743,459.202545 550.282471,459.895325 548.326172,457.442535 
	C546.095703,454.645966 543.487061,452.918213 539.797485,453.251648 
	C536.765320,453.525665 534.155334,454.603271 533.450989,457.867004 
	C532.742920,461.148163 535.114685,462.631958 537.609253,463.850525 
	C541.936279,465.964325 546.641846,467.122192 550.879272,469.554871 
	C557.115112,473.134796 559.822388,478.423035 559.101929,485.316315 
	C558.388733,492.140381 554.087463,496.868103 547.810852,498.592194 
	C537.252014,501.492615 529.018433,499.040039 523.204712,488.857422 
	C521.824463,486.440033 520.739624,483.853546 524.204407,482.106903 
	C527.316284,480.538177 529.841492,479.954071 531.849060,484.158478 
	C534.530823,489.774689 539.583618,491.603302 544.614441,489.708862 
	C547.352722,488.677704 549.186218,486.800720 549.476624,483.932770 
	C549.757629,481.156036 548.035095,479.258179 545.717957,477.955383 
	C540.212219,474.859955 533.720276,473.864258 528.318848,469.696869 
z"/>
<path fill="#000000" opacity="1.000000" stroke="none" 
	d="
M807.170410,444.339600 
	C811.437622,445.221344 814.739319,447.150543 817.800781,449.490997 
	C820.188049,451.316071 821.301331,453.604279 819.208984,456.357086 
	C817.158997,459.054138 814.926758,459.461426 811.946533,457.317780 
	C804.746948,452.139221 796.875488,451.783386 790.661743,456.275940 
	C783.576538,461.398560 782.178528,468.766998 783.503723,476.781738 
	C784.673340,483.856018 790.801086,489.036560 799.043213,490.311432 
	C804.316223,491.127045 808.920227,489.188782 812.879395,485.889343 
	C815.897766,483.373962 818.494019,483.162781 820.914551,486.436096 
	C823.494873,489.925812 821.014648,491.893097 818.543213,493.812531 
	C802.501648,506.271118 777.963318,498.496002 774.114502,479.307617 
	C769.137634,454.495148 788.086487,440.708649 807.170410,444.339600 
z"/>
<path fill="#000000" opacity="1.000000" stroke="none" 
	d="
M342.079163,498.441681 
	C331.059875,501.505066 322.768921,498.892975 317.492859,490.962738 
	C312.586823,483.588593 313.228638,472.365753 318.993927,464.717773 
	C323.591034,458.619446 333.216553,456.342407 341.230713,459.457367 
	C347.853058,462.031372 352.982483,470.776611 352.358734,477.973938 
	C352.034363,481.717285 349.649689,482.057434 346.788788,482.054199 
	C339.669495,482.046143 332.550232,482.051544 325.201080,482.051544 
	C324.817169,486.382843 327.237183,488.246033 330.094238,489.663391 
	C333.519684,491.362701 336.898285,491.012207 339.954437,488.705902 
	C341.134521,487.815460 342.002441,486.507996 343.191132,485.633057 
	C345.536621,483.906586 347.625824,485.099487 349.513947,486.595612 
	C351.486450,488.158539 351.118103,489.944794 349.910400,491.881378 
	C348.077484,494.820557 345.432770,496.737671 342.079163,498.441681 
M327.228790,471.780090 
	C331.391693,473.876190 335.553223,472.425385 340.193390,472.455292 
	C336.186310,466.758392 332.214722,466.565063 327.228790,471.780090 
z"/>
<path fill="#000000" opacity="1.000000" stroke="none" 
	d="
M278.540405,466.757324 
	C279.184906,467.966187 279.681824,468.843628 280.006622,469.780792 
	C283.435211,479.673950 281.905090,481.913116 271.642059,482.056244 
	C266.158081,482.132690 260.673492,482.176422 255.190262,482.287537 
	C254.771545,482.295990 254.361328,482.724091 253.972870,482.942657 
	C255.968262,490.986389 264.557587,493.477722 270.348907,487.411774 
	C273.260742,484.361786 275.702881,484.249420 278.399048,486.762360 
	C281.431030,489.588318 278.965759,491.860779 277.045624,493.936584 
	C271.931305,499.465271 263.192749,501.377472 255.947998,498.634766 
	C248.657822,495.874908 243.730927,488.804871 243.598969,480.914062 
	C243.378204,467.709839 248.245651,460.596863 259.281189,458.451935 
	C267.311127,456.891144 273.586792,459.937103 278.540405,466.757324 
M264.793884,468.367401 
	C261.104401,467.742340 257.959656,468.253296 255.429337,472.471832 
	C260.678162,472.785706 264.829376,473.212952 268.977325,472.123474 
	C268.629150,469.793915 266.938843,469.326935 264.793884,468.367401 
z"/>
<path fill="#000000" opacity="1.000000" stroke="none" 
	d="
M670.141113,497.191223 
	C657.421936,489.145050 658.015686,469.888763 668.251892,462.032532 
	C673.764038,457.802002 682.404236,456.784302 688.964966,460.283966 
	C694.904602,463.452362 698.923157,471.156799 698.356628,477.829071 
	C698.080505,481.081055 696.307190,482.055511 693.391785,482.040314 
	C686.084778,482.002167 678.777405,482.027710 671.472168,482.027710 
	C671.432251,488.786621 678.679993,492.815247 684.839417,489.490875 
	C686.266113,488.720886 687.507263,487.516510 688.654053,486.337189 
	C691.170898,483.749084 693.549622,484.838654 695.706909,486.638336 
	C698.155640,488.681122 696.977478,490.649048 695.276184,492.619324 
	C688.814758,500.102539 679.909729,501.852448 670.141113,497.191223 
M683.598083,472.737183 
	C685.923828,472.606445 686.939514,471.893524 684.830322,469.873688 
	C681.168274,466.366577 676.245117,467.390411 673.224060,472.755768 
	C676.611755,472.755768 679.714111,472.755768 683.598083,472.737183 
z"/>
<path fill="#000000" opacity="1.000000" stroke="none" 
	d="
M393.865753,459.773865 
	C408.141052,468.196411 410.193909,484.765991 398.576599,495.127899 
	C392.215912,500.801300 384.696716,500.810211 377.480621,498.035370 
	C370.089813,495.193268 365.995148,489.043884 365.714386,480.968384 
	C365.123535,463.975128 377.424377,454.614441 393.865753,459.773865 
M375.559357,479.339508 
	C375.963287,480.770813 376.294037,482.227783 376.785217,483.628510 
	C378.133087,487.472595 380.930511,489.556580 384.948669,489.817383 
	C388.951935,490.077209 391.943665,488.324615 393.969147,484.840973 
	C396.497803,480.491882 396.119934,476.170807 393.406342,472.212128 
	C391.358002,469.223969 388.287750,467.357361 384.464355,468.046387 
	C379.478668,468.944855 376.785156,472.256653 375.875000,477.134918 
	C375.784027,477.622467 375.665283,478.104828 375.559357,479.339508 
z"/>
<path fill="#000000" opacity="1.000000" stroke="none" 
	d="
M944.239502,136.188232 
	C932.049683,134.885330 923.061157,129.081924 918.940247,118.077026 
	C913.312378,103.047661 917.378540,86.378098 934.328552,78.969032 
	C949.953003,72.139389 968.257812,79.734802 974.018066,95.310471 
	C981.737366,116.183647 966.681519,137.091248 944.239502,136.188232 
M970.268188,102.331680 
	C967.921631,87.101631 953.951294,80.275589 941.668701,82.450363 
	C927.951599,84.879128 920.022278,96.993538 922.464966,111.538963 
	C924.471436,123.486618 936.838623,132.406311 948.974976,130.658920 
	C963.211975,128.609070 971.902649,117.462646 970.268188,102.331680 
z"/>
<path fill="#000000" opacity="1.000000" stroke="none" 
	d="
M587.361511,459.349060 
	C592.235962,458.884277 593.554077,461.182312 593.388794,465.322968 
	C593.169861,470.805878 593.292969,476.304626 593.348816,481.795776 
	C593.408081,487.627899 595.532898,490.476746 599.850037,490.700287 
	C604.676636,490.950226 608.476868,487.437561 608.741821,481.946198 
	C609.022217,476.134125 608.894653,470.301208 608.898010,464.477417 
	C608.899658,461.622406 609.773682,459.750519 613.036499,459.403809 
	C616.643799,459.020477 618.359802,460.214142 618.329651,463.990814 
	C618.251099,473.808594 618.362488,483.627869 618.287537,493.445679 
	C618.251343,498.188843 615.401855,500.207001 611.143433,498.012146 
	C608.932861,496.872772 607.631958,497.357849 605.763123,498.165039 
	C595.024170,502.803680 585.482239,497.595062 584.386475,486.016022 
	C583.683960,478.593018 584.105835,471.059540 584.118530,463.575745 
	C584.121765,461.666016 584.739807,459.932007 587.361511,459.349060 
z"/>
<path fill="#000000" opacity="1.000000" stroke="none" 
	d="
M847.298035,484.377014 
	C847.630249,488.577637 849.706909,490.586945 853.452515,490.669037 
	C857.641418,490.760864 860.386475,488.623901 861.686829,484.706512 
	C863.194336,480.164917 862.425598,475.448456 862.568848,470.804504 
	C862.630493,468.806763 862.626465,466.804626 862.576843,464.806366 
	C862.502563,461.817596 863.038269,459.603546 866.848022,459.566040 
	C870.430054,459.530853 872.103027,460.920197 872.092834,464.524048 
	C872.065063,474.354980 872.198303,484.187164 872.082214,494.016663 
	C872.033813,498.115112 869.489563,499.824463 865.138916,498.122040 
	C862.456543,497.072418 860.585388,497.512177 858.196594,498.510864 
	C848.121643,502.722870 838.113159,496.272034 837.770508,485.319824 
	C837.551758,478.328125 837.798706,471.322906 837.675842,464.326599 
	C837.616150,460.927002 838.975403,459.511078 842.413147,459.567047 
	C845.813965,459.622467 847.254761,461.157837 847.243896,464.446533 
	C847.222351,470.944916 847.265564,477.443512 847.298035,484.377014 
z"/>
<path fill="#000000" opacity="1.000000" stroke="none" 
	d="
M711.777832,471.011902 
	C708.772034,478.434937 710.526062,485.829071 710.249084,493.077911 
	C710.088562,497.281219 708.333557,498.716797 704.378479,498.388275 
	C701.929199,498.184814 700.723083,497.033264 700.719971,494.615967 
	C700.706604,484.129272 700.599548,473.640991 700.757996,463.156769 
	C700.814453,459.425934 704.210388,457.829834 708.064819,459.902985 
	C709.922241,460.902039 711.020996,460.988861 712.918091,460.105469 
	C723.527832,455.165070 733.550110,460.562683 734.710938,472.235809 
	C735.432251,479.489136 734.953247,486.865051 734.947754,494.185913 
	C734.945374,497.380676 733.088379,498.424042 730.070251,498.412537 
	C726.866333,498.400330 725.586853,496.986755 725.626892,493.858917 
	C725.703613,487.867432 725.577637,481.873413 725.641846,475.881592 
	C725.680237,472.302277 725.002930,469.103363 721.232849,467.777191 
	C717.545837,466.480225 714.354187,467.429962 711.777832,471.011902 
z"/>
<path fill="#000000" opacity="1.000000" stroke="none" 
	d="
M303.215424,471.293152 
	C304.469879,468.155975 305.671143,465.409363 306.636353,462.582153 
	C307.906616,458.861481 310.712982,458.345123 313.840759,459.276978 
	C317.580078,460.390991 316.609711,463.455017 315.664886,465.876862 
	C311.862976,475.622375 307.836182,485.279907 303.933350,494.986420 
	C302.783234,497.846741 300.674072,498.890839 297.697662,498.977539 
	C294.704376,499.064728 293.190460,497.602539 292.144226,494.992615 
	C288.252136,485.283813 284.275330,475.608612 280.272552,465.944733 
	C279.166809,463.275238 278.315247,460.562042 281.867950,459.352020 
	C284.913452,458.314697 287.903015,458.754333 289.330261,462.296509 
	C291.751923,468.306519 294.093750,474.348663 296.491180,480.368530 
	C296.838867,481.241547 297.308441,482.065979 297.957977,483.397400 
	C300.490631,479.425995 301.515594,475.419617 303.215424,471.293152 
z"/>
<path fill="#000000" opacity="1.000000" stroke="none" 
	d="
M578.459229,490.426422 
	C582.227356,490.460693 582.292114,492.855164 582.212585,495.299774 
	C582.128296,497.891052 580.625610,499.030060 578.168091,499.518127 
	C570.645203,501.012146 564.154053,496.051056 563.848022,488.232239 
	C563.646545,483.085510 563.757507,477.925415 563.781128,472.771576 
	C563.791626,470.487946 563.740417,468.497253 560.695984,468.070984 
	C558.299622,467.735382 557.721191,465.791321 557.688477,463.579041 
	C557.655029,461.322723 558.294678,459.549957 560.726013,459.161438 
	C563.657227,458.692993 563.934570,456.657166 563.784058,454.367493 
	C563.549500,450.800659 565.106384,449.098999 568.720032,449.168213 
	C572.127869,449.233490 573.548035,450.988922 573.256348,454.244812 
	C572.956482,457.592346 574.264160,459.198059 577.773376,459.059021 
	C580.888062,458.935638 582.252136,460.701752 582.169373,463.768066 
	C582.085205,466.889160 580.470764,468.380249 577.442749,468.199158 
	C574.086304,467.998444 573.104736,469.654907 573.217163,472.737244 
	C573.374573,477.054810 573.274353,481.381470 573.302185,485.704132 
	C573.322510,488.860291 574.514465,490.866913 578.459229,490.426422 
z"/>
<path fill="#000000" opacity="1.000000" stroke="none" 
	d="
M735.623657,460.020142 
	C739.723877,459.821442 741.166199,457.924713 740.716064,454.185455 
	C740.331787,450.992493 741.616760,449.111816 745.168213,449.123505 
	C748.787292,449.135406 750.373779,450.848572 750.132690,454.376221 
	C749.913025,457.591003 750.361450,460.099915 754.607300,459.518066 
	C757.110718,459.175018 758.276794,460.552368 758.340088,463.020172 
	C758.405029,465.550293 758.047913,468.156281 754.935242,468.035889 
	C750.126526,467.849945 750.000244,470.676300 750.112549,474.150787 
	C750.241699,478.145020 750.161255,482.145874 750.182129,486.143799 
	C750.197571,489.089752 751.193909,491.145172 754.631104,490.476624 
	C757.634094,489.892517 759.044006,491.020721 759.181885,494.042480 
	C759.314636,496.955170 758.290466,498.791473 755.196472,499.334137 
	C746.681824,500.827423 740.844482,496.069702 740.704956,487.334991 
	C740.627808,482.505066 740.613831,477.671844 740.701233,472.842438 
	C740.747803,470.267517 740.332336,468.729584 737.259033,467.892334 
	C732.976807,466.725739 733.795410,463.354126 735.623657,460.020142 
z"/>
<path fill="#000000" opacity="1.000000" stroke="none" 
	d="
M834.257568,463.002533 
	C834.257019,473.495331 834.168030,483.489685 834.299500,493.481140 
	C834.348877,497.234589 833.038025,499.024719 829.102356,498.974976 
	C825.152344,498.924957 823.942627,496.979218 823.968811,493.320374 
	C824.070068,479.164154 824.058228,465.006897 824.021545,450.850189 
	C824.011719,447.067780 824.664307,444.437164 829.493469,444.602203 
	C834.226807,444.763916 834.325073,447.626953 834.280029,451.010864 
	C834.229065,454.840973 834.260986,458.672180 834.257568,463.002533 
z"/>
<path fill="#000000" opacity="1.000000" stroke="none" 
	d="
M491.731262,498.681152 
	C487.785126,499.023987 486.016174,497.386047 486.023041,493.833893 
	C486.042023,484.026489 485.950867,474.216858 486.139008,464.412659 
	C486.229279,459.706940 488.662598,457.839355 492.940948,459.695618 
	C495.740387,460.910187 497.520691,460.038025 499.824188,459.118011 
	C505.457214,456.868164 510.021942,458.713928 510.268799,463.105316 
	C510.464508,466.586639 509.259796,468.355408 505.366943,468.096222 
	C499.174286,467.683899 496.153870,470.562134 495.989746,476.820953 
	C495.846039,482.302979 495.957062,487.791687 495.955750,493.277466 
	C495.955139,495.974243 495.471619,498.326172 491.731262,498.681152 
z"/>
<path fill="#000000" opacity="1.000000" stroke="none" 
	d="
M364.055664,475.999451 
	C364.013214,482.153442 363.917725,487.807617 363.937958,493.461395 
	C363.950287,496.904236 362.581482,498.821014 358.919189,498.678497 
	C355.379913,498.540771 354.576782,496.362701 354.588440,493.300049 
	C354.643555,478.848145 354.656189,464.395935 354.619446,449.944000 
	C354.611603,446.868744 355.346497,444.828461 358.993835,444.723602 
	C362.893036,444.611481 363.874786,446.842438 363.901733,450.056274 
	C363.972839,458.537201 364.004211,467.018402 364.055664,475.999451 
z"/>
<path fill="#000000" opacity="1.000000" stroke="none" 
	d="
M1003.438049,67.496902 
	C1009.847778,73.127884 1010.487427,82.692581 1005.102844,87.986313 
	C999.237854,93.752434 990.834229,93.443268 985.274170,87.256805 
	C982.004028,83.618240 981.354553,76.381660 983.887329,71.804451 
	C986.601135,66.900070 992.383911,64.515350 998.970032,65.737663 
	C1000.402771,66.003571 1001.745178,66.755692 1003.438049,67.496902 
M990.005554,72.679214 
	C987.154419,76.223892 987.076294,80.336967 989.372314,83.756485 
	C991.254150,86.559227 994.732178,87.537621 998.307068,86.102669 
	C1002.873047,84.269943 1004.871826,79.485168 1002.900208,75.069969 
	C1000.951233,70.705559 996.337463,69.637947 990.005554,72.679214 
z"/>
<path fill="#000000" opacity="1.000000" stroke="none" 
	d="
M398.000061,135.672928 
	C416.510773,135.331253 434.502472,135.406021 451.879883,141.072296 
	C478.610779,149.788452 495.456055,168.465546 504.268616,194.592224 
	C511.141510,214.968414 510.871124,236.042618 509.581573,257.275665 
	C508.408020,276.598633 503.006866,294.191406 491.706238,309.880005 
	C478.719757,327.909119 461.142731,338.517609 439.253479,342.407227 
	C423.570282,345.194092 407.789337,344.851074 391.999390,344.907532 
	C382.506195,344.941498 373.012634,344.946167 363.519501,344.905182 
	C353.117371,344.860260 346.335541,338.721985 346.218109,328.348663 
	C345.965485,306.034058 345.771790,283.707428 346.220276,261.399139 
	C346.749176,235.091324 346.388855,208.788559 346.567383,182.484451 
	C346.637451,172.158875 346.508514,161.831802 346.598907,151.506546 
	C346.684875,141.685486 352.801483,135.682068 362.525024,135.676834 
	C374.183380,135.670532 385.841705,135.673950 398.000061,135.672928 
M351.551697,255.726395 
	C351.602966,256.389923 351.719727,257.055786 351.696014,257.716644 
	C350.864990,280.868744 351.447418,304.028107 351.399963,327.183472 
	C351.385040,334.461975 355.569946,339.679657 361.788940,339.552368 
	C386.879791,339.038788 412.012543,341.392639 437.057892,337.202850 
	C469.423950,331.788452 489.521942,312.639465 499.555511,282.427155 
	C506.929871,260.222076 506.487549,237.168808 503.441345,214.271347 
	C500.806549,194.466675 493.131866,176.707916 478.551208,162.581573 
	C461.267181,145.836090 439.107544,141.850235 416.443024,140.599365 
	C399.331970,139.654999 382.126801,140.396439 364.963562,140.424820 
	C355.861542,140.439865 351.407654,144.719681 351.395203,153.862595 
	C351.349396,187.521805 351.420471,221.181183 351.551697,255.726395 
z"/>
</svg>