<svg version="1.1" id="Layer_1" xmlns="http://www.w3.org/2000/svg" xmlns:xlink="http://www.w3.org/1999/xlink" x="0px" y="0px"
	 width="100%" viewBox="0 0 1280 709" enable-background="new 0 0 1280 709" xml:space="preserve">
<path fill="#FFFFFF" opacity="1.000000" stroke="none" 
	d="
M938.000000,710.000000 
	C625.372559,710.000000 313.245087,710.000000 1.058806,710.000000 
	C1.058806,473.735565 1.058806,237.471115 1.058806,1.103327 
	C427.544159,1.103327 854.088379,1.103327 1280.816284,1.103327 
	C1280.816284,237.333221 1280.816284,473.666595 1280.816284,710.000000 
	C1166.804321,710.000000 1052.652222,710.000000 938.000000,710.000000 
M363.026794,322.935181 
	C363.017853,346.858093 362.985016,370.781036 363.006287,394.703918 
	C363.030640,422.112244 363.103027,449.520538 363.041779,477.702301 
	C365.252655,486.512634 369.703369,491.001038 377.984863,491.983124 
	C407.973877,491.988770 437.962891,492.017029 467.951874,491.991608 
	C486.273651,491.976074 504.595367,491.878052 523.830139,491.911591 
	C529.604919,491.562225 535.505066,491.849274 541.130188,490.740509 
	C556.162048,487.777557 571.234375,484.791779 585.992981,480.732910 
	C601.476257,476.474762 615.825806,469.112244 629.063843,460.119202 
	C641.200195,451.874603 653.083069,442.983521 662.119324,431.179413 
	C669.445068,421.609802 676.634033,411.852203 682.908630,401.582275 
	C690.766113,388.721405 695.865051,374.491455 699.374695,359.879517 
	C701.883118,349.435699 703.071289,338.674744 705.203552,327.300964 
	C705.795593,323.936401 706.828247,320.582397 706.909119,317.205597 
	C707.495667,292.716675 706.909851,268.308746 700.958435,244.340942 
	C697.046082,228.585129 692.028625,213.153946 684.140442,198.979843 
	C674.891479,182.360703 663.655212,167.184158 649.115479,154.526917 
	C635.462463,142.641647 621.052917,131.986130 604.254944,125.174324 
	C592.329590,120.338425 580.129578,115.923248 567.699585,112.665779 
	C556.818909,109.814354 545.462524,107.402817 534.288940,107.279747 
	C482.306488,106.707207 430.313538,107.154373 378.327179,106.807747 
	C370.613892,106.756317 363.943451,113.194595 363.020203,121.983200 
	C363.013458,184.006210 363.003204,246.029236 363.007172,308.052246 
	C363.007477,312.703979 363.109589,317.355682 363.026794,322.935181 
M893.954712,580.009705 
	C897.642883,580.527832 901.666687,580.289490 904.940491,581.741699 
	C909.832642,583.911804 909.833618,589.158813 909.937561,593.724365 
	C910.133545,602.331482 909.994141,610.946167 909.994141,619.611755 
	C911.902039,619.611755 913.395020,619.611755 915.020691,619.611755 
	C915.020691,609.741150 914.949890,600.268921 915.043823,590.798401 
	C915.114990,583.624878 910.052612,580.423950 904.841003,577.454956 
	C900.316162,574.877258 896.113342,576.164429 891.836243,579.716309 
	C891.302979,579.970093 890.769714,580.223877 890.236450,580.477661 
	C890.323792,580.690857 890.411072,580.904114 890.498352,581.117310 
	C891.354797,580.771301 892.211304,580.425293 893.954712,580.009705 
M72.687737,588.829285 
	C81.592613,583.784485 90.461639,578.674988 99.414444,573.716736 
	C105.872475,570.140076 109.597786,560.471252 106.680206,554.372681 
	C103.871635,548.502014 93.793884,545.428101 87.449776,548.959839 
	C75.633698,555.537842 63.978878,562.407410 52.303169,569.234680 
	C49.175175,571.063721 46.214302,573.178589 42.739182,575.707642 
	C40.596024,576.897278 38.316406,577.895813 36.334522,579.311279 
	C29.599470,584.121460 29.020300,593.546570 35.340286,598.716431 
	C38.732826,601.491577 42.604710,603.720459 46.403385,605.952209 
	C59.175682,613.455994 72.144867,620.634216 84.769409,628.376160 
	C91.286469,632.372681 101.453217,631.767944 104.892975,626.261169 
	C108.760910,620.068848 108.075203,611.186401 99.513535,606.720642 
	C91.466019,602.523010 83.764313,597.652527 75.998528,592.933228 
	C74.470581,592.004639 73.344414,590.414978 72.687737,588.829285 
M164.957199,590.457153 
	C155.114517,596.266357 145.126389,601.846619 135.484558,607.971924 
	C129.848526,611.552429 128.558960,619.545166 131.893539,625.353577 
	C135.226334,631.158875 142.254547,633.813416 148.407211,631.056152 
	C152.700958,629.131897 156.656906,626.453491 160.762344,624.109497 
	C172.495819,617.410156 184.228607,610.709595 196.589020,603.680847 
	C197.193222,603.442261 197.803452,603.217834 198.400681,602.962952 
	C210.475571,597.810181 209.839813,581.578247 199.837341,577.205750 
	C196.724808,575.845154 193.910217,573.800049 190.967316,572.054749 
	C181.591080,566.493896 172.297928,560.786560 162.813278,555.417480 
	C157.606766,552.470154 152.250656,549.618652 146.649521,547.584412 
	C141.043045,545.548218 133.260025,549.086304 131.433563,554.404785 
	C129.312927,560.579773 129.642853,568.133240 135.920837,571.964172 
	C140.509201,574.764099 145.306152,577.221619 149.901062,580.011414 
	C155.081299,583.156555 160.139282,586.503052 164.957199,590.457153 
M237.064850,298.248016 
	C238.786987,296.597260 240.267014,294.529755 242.271622,293.365234 
	C253.098602,287.075531 263.860352,280.859955 272.371490,271.296967 
	C284.832855,257.295532 291.937836,241.136215 292.967896,222.473221 
	C293.430725,214.087372 293.944702,205.530853 292.809723,197.275284 
	C291.462616,187.476883 289.592499,177.402069 285.783752,168.358978 
	C276.272339,145.775970 260.902924,127.853508 238.761993,116.549728 
	C230.913208,112.542641 222.759766,108.981979 214.446213,106.072403 
	C203.278519,102.163925 191.782852,99.541924 179.747330,99.810036 
	C163.695389,100.167625 147.423904,98.568039 131.629074,100.675186 
	C109.229889,103.663376 89.112206,113.594261 72.173401,128.750092 
	C64.443977,135.665924 57.260223,143.497833 51.223137,151.914261 
	C44.968636,160.633820 40.404041,170.565201 35.096706,179.964523 
	C23.933344,199.734924 32.144665,226.953552 55.511620,233.358414 
	C71.034340,237.613190 88.683754,231.187302 95.942451,216.806046 
	C99.099358,210.551453 101.109032,203.712509 104.329697,197.496429 
	C112.683388,181.373306 124.681587,168.928284 142.927414,164.751480 
	C161.399261,160.522934 179.892822,161.980942 196.799835,170.726730 
	C207.627136,176.327591 215.757156,185.338470 218.963989,197.900269 
	C220.951447,205.685577 221.107666,213.528534 219.800034,221.269562 
	C218.748856,227.492371 217.389740,233.998474 214.497543,239.501297 
	C209.354935,249.285873 200.600159,255.415237 190.138474,259.040039 
	C174.120621,264.589905 157.394928,265.985962 140.692688,266.772797 
	C131.476105,267.207001 123.380196,274.123138 123.878181,283.970215 
	C124.264763,291.614502 124.468391,299.337402 123.824272,306.946716 
	C123.037170,316.245239 130.484192,323.932343 139.948288,324.918457 
	C159.470688,325.177582 178.390213,327.512756 196.161789,336.855133 
	C207.606873,342.871735 214.289230,352.396057 217.473709,363.806396 
	C220.096512,373.204193 221.553436,383.186493 220.107086,393.413696 
	C217.756668,410.033691 205.240982,424.917786 190.618118,429.579376 
	C177.329224,433.815765 163.542435,437.110901 149.508820,433.798401 
	C141.678558,431.950073 133.322601,429.923920 126.761215,425.609161 
	C113.398811,416.822205 104.478119,404.153931 99.927361,388.453766 
	C97.334908,379.509735 94.206375,370.390656 86.461601,364.372864 
	C72.090195,353.206207 58.707561,352.664307 42.823669,361.992828 
	C33.613869,367.401703 25.059244,384.079163 27.126411,394.212555 
	C28.478371,400.839844 30.492962,407.538269 33.474045,413.581696 
	C38.825813,424.431061 44.513027,435.223450 51.231075,445.255493 
	C56.477100,453.089417 62.967514,460.298065 69.853294,466.776611 
	C79.933090,476.260162 91.844467,483.243439 104.506210,488.950897 
	C116.581657,494.394073 129.269394,498.184296 142.323273,498.651031 
	C157.664383,499.199524 173.148468,498.397430 188.445389,496.901276 
	C210.412552,494.752747 230.606339,487.230011 249.030777,474.711670 
	C263.449921,464.914703 274.325836,452.465393 282.101929,436.921783 
	C294.123444,412.892120 296.726776,387.841827 291.005829,361.825378 
	C286.460205,341.154053 276.474579,323.843689 258.423431,311.983765 
	C251.463089,307.410736 244.207535,303.287079 237.064850,298.248016 
M759.015991,329.892822 
	C761.567505,340.670898 763.600098,351.605133 766.786560,362.192139 
	C772.191772,380.151093 781.248108,396.456940 791.652649,411.956299 
	C806.463196,434.019104 825.566589,452.069794 847.599060,466.484680 
	C866.037354,478.548004 886.219482,487.596863 907.864807,492.951508 
	C923.611328,496.846924 939.601257,498.831726 955.729309,498.868958 
	C972.020630,498.906586 988.310303,497.256165 1003.914856,492.342438 
	C1017.736206,487.990295 1031.931763,483.906647 1044.648682,477.210083 
	C1059.131836,469.583374 1072.610718,459.781647 1085.655396,449.788513 
	C1093.942871,443.439819 1101.020386,435.349304 1107.938477,427.426880 
	C1113.514404,421.041443 1117.887939,413.621796 1123.075317,406.876556 
	C1127.514404,401.104553 1129.687256,394.585114 1129.901123,387.507019 
	C1130.231445,376.572388 1126.185913,367.252350 1117.908081,360.080322 
	C1109.145508,352.488159 1099.323608,348.317719 1087.281250,350.914978 
	C1074.367554,353.700195 1066.570557,362.670593 1059.218994,372.546326 
	C1044.295044,392.594452 1027.118286,410.005829 1003.639038,420.175873 
	C992.660461,424.931213 981.727478,429.170807 969.575256,430.224640 
	C951.317627,431.807953 933.502319,431.168274 916.089539,424.682251 
	C898.954651,418.299713 883.140503,409.654877 870.325012,396.621277 
	C856.320496,382.378265 844.787354,366.164246 838.013428,347.142822 
	C834.747253,337.971313 832.550415,328.418976 829.982483,318.168335 
	C829.987061,306.299530 829.357727,294.387604 830.161743,282.573212 
	C831.099731,268.791595 835.468445,255.656876 841.463867,243.267136 
	C847.743896,230.289246 855.895752,218.488770 865.510254,207.631866 
	C875.066833,196.840393 886.377625,188.379776 898.909851,181.667984 
	C912.230957,174.533722 926.401428,170.320389 941.715759,168.597015 
	C966.705505,165.784821 989.809998,170.692291 1011.534485,182.374634 
	C1030.977417,192.830048 1046.445801,208.008957 1059.068726,226.077881 
	C1068.783325,239.983627 1081.325562,247.583298 1098.887207,244.005859 
	C1111.420898,241.452682 1120.407837,234.123093 1124.801025,222.325516 
	C1129.401123,209.972214 1128.535645,197.473953 1120.083130,186.856155 
	C1111.302734,175.826416 1101.716064,165.432251 1092.328979,154.896423 
	C1089.983887,152.264435 1087.138916,150.046417 1084.370728,147.829117 
	C1077.404053,142.248856 1070.791992,136.050613 1063.219482,131.445801 
	C1053.637329,125.618896 1043.385986,120.814087 1033.153687,116.161224 
	C1026.051392,112.931610 1018.653564,110.083389 1011.110535,108.141914 
	C989.088806,102.473846 966.907043,99.057724 943.861145,100.689972 
	C926.320190,101.932327 909.164124,104.494308 892.984009,110.835182 
	C877.249573,117.001389 861.515625,123.926270 847.240906,132.852081 
	C832.202026,142.255661 817.910034,153.322266 806.883179,167.722946 
	C799.721741,177.075607 792.012695,186.114029 785.832886,196.088669 
	C776.455933,211.223740 769.007996,227.390686 764.049072,244.624359 
	C759.801208,259.387207 757.493164,274.422302 756.983704,289.738831 
	C756.771729,296.110199 756.660889,302.510834 757.024902,308.868347 
	C757.411072,315.612701 758.415466,322.321655 759.015991,329.892822 
M1169.534790,164.094681 
	C1173.321899,165.052216 1177.069580,166.593887 1180.903931,166.853836 
	C1190.967041,167.536087 1199.523315,163.622696 1206.624512,156.677643 
	C1213.517090,149.936508 1217.424561,141.091843 1216.584473,131.946793 
	C1215.122437,116.031891 1208.499023,104.364021 1188.923218,99.465012 
	C1175.898438,96.205467 1157.511475,104.524834 1152.222046,116.884293 
	C1144.484375,134.964508 1149.416626,154.171661 1169.534790,164.094681 
M252.987350,615.369995 
	C253.067078,616.814148 253.146805,618.258301 253.269913,620.488342 
	C261.633728,619.974731 269.782593,620.134705 277.676147,618.792847 
	C284.731323,617.593506 290.636292,613.867615 295.156311,607.607056 
	C300.244141,600.559998 300.578186,592.845459 299.862701,585.054993 
	C298.866791,574.210754 293.558929,566.465515 282.696106,562.271912 
	C272.883972,558.483887 263.154083,561.010193 252.987305,559.812744 
	C252.987305,578.480469 252.987305,596.436584 252.987350,615.369995 
M511.982971,599.500122 
	C511.982971,612.609802 511.982971,625.719482 511.982971,639.123413 
	C513.999084,638.962402 515.397522,638.850769 517.224792,638.704834 
	C517.224792,630.315430 517.224792,622.258667 517.224792,613.461609 
	C518.843933,614.299927 519.800232,614.767578 520.730896,615.281860 
	C524.176575,617.185730 527.470642,620.384827 531.079651,620.787781 
	C543.910034,622.220642 552.029358,612.822205 553.953735,600.770447 
	C555.427795,591.538574 549.787598,585.074219 543.689087,579.455566 
	C538.553589,574.724243 529.181213,575.718323 524.013794,580.378723 
	C522.206238,582.008911 519.816956,582.994019 517.230713,584.552490 
	C517.066528,581.853516 516.958923,580.084900 516.849976,578.293823 
	C515.102234,578.293823 513.708130,578.293823 511.982971,578.293823 
	C511.982971,585.218140 511.982971,591.859131 511.982971,599.500122 
M1136.246338,588.527771 
	C1134.517090,585.846436 1133.384155,582.265991 1130.948242,580.650024 
	C1123.210938,575.517212 1119.256226,574.423828 1110.974121,579.112183 
	C1108.419922,580.558105 1106.107666,582.431580 1102.747314,584.758179 
	C1102.747314,576.019958 1102.747314,568.170837 1102.747314,560.301941 
	C1101.094360,560.301941 1099.705200,560.301941 1097.990356,560.301941 
	C1097.990356,579.536621 1097.947021,598.474060 1098.110962,617.409668 
	C1098.119873,618.420166 1099.876953,619.415466 1100.820312,620.417847 
	C1101.178223,620.091858 1101.536255,619.765869 1101.894165,619.439880 
	C1101.967407,617.801819 1102.040771,616.163818 1102.164673,613.392029 
	C1104.014526,614.172791 1105.463135,614.721069 1106.856934,615.384460 
	C1110.746460,617.236023 1114.460693,620.196960 1118.523071,620.781555 
	C1125.675781,621.810791 1130.975342,618.020386 1135.131470,612.024902 
	C1139.377686,605.899597 1140.548706,595.087646 1136.246338,588.527771 
M810.985962,615.199402 
	C812.475525,614.709534 813.965027,614.219604 816.101135,613.517090 
	C815.893555,616.273438 815.764160,617.991882 815.630798,619.763306 
	C816.907166,619.763306 818.313599,619.763306 819.718506,619.763306 
	C819.718506,599.751282 819.718506,580.003784 819.718506,559.952820 
	C818.006653,560.088135 816.615295,560.198059 814.988586,560.326660 
	C814.988586,564.664917 814.885925,568.647705 815.018433,572.622681 
	C815.142334,576.340454 815.515747,580.049927 815.779358,583.763062 
	C815.087952,584.039307 814.396545,584.315552 813.705139,584.591797 
	C812.141235,582.916565 810.791931,580.948792 808.976318,579.616638 
	C800.942017,573.721558 791.095459,575.802185 784.065552,584.296448 
	C778.113586,591.488281 775.893555,599.097900 780.016663,607.895447 
	C783.216675,614.723511 790.746338,622.168701 798.989563,620.832397 
	C803.017578,620.179382 806.735168,617.611694 810.985962,615.199402 
M465.298340,584.926147 
	C459.724121,590.177612 460.295105,597.161438 461.416901,603.447815 
	C462.237396,608.045776 464.700348,613.533630 468.250610,616.222839 
	C476.414764,622.406799 485.623505,622.954407 494.689636,616.790039 
	C500.113495,613.102173 504.776367,601.852722 503.304352,595.561523 
	C501.459595,587.677063 497.392334,582.122864 489.955719,578.207520 
	C482.737244,574.407104 468.843872,577.508728 465.298340,584.926147 
M568.449829,615.989868 
	C579.416321,624.979675 593.818237,621.255127 598.671631,610.935730 
	C597.236206,610.826660 595.547485,610.888611 594.743103,611.763611 
	C588.650085,618.391235 574.110840,619.530090 569.792297,612.885559 
	C567.196838,608.892151 566.613586,603.590881 564.853943,598.015137 
	C577.785034,598.015137 589.191711,598.015137 600.630493,598.015137 
	C601.882324,592.329407 599.353760,588.488770 596.593811,584.361023 
	C593.687195,580.013916 584.492310,574.971069 579.608643,576.137634 
	C573.009644,577.713928 568.026306,581.064697 564.366943,587.187378 
	C558.812439,596.480896 559.697876,606.008850 568.449829,615.989868 
M1230.972900,94.582710 
	C1229.620239,103.098335 1234.081421,110.619751 1241.309570,112.009895 
	C1247.743286,113.247253 1256.242920,108.177063 1257.772461,102.189400 
	C1259.663818,94.785133 1255.973755,87.168610 1249.599365,85.013153 
	C1241.516846,82.280075 1233.373047,85.921623 1230.972900,94.582710 
M867.647949,589.152527 
	C866.581604,587.626404 865.363403,586.183044 864.478027,584.558350 
	C862.061096,580.123108 852.886353,575.135681 848.247131,576.017395 
	C841.078918,577.379700 835.723328,581.633728 831.933044,587.568115 
	C824.469910,599.253174 831.194824,616.486450 844.191711,620.147400 
	C854.258606,622.982971 861.537231,618.880676 867.483215,610.900513 
	C865.637451,610.855774 863.503174,610.994873 862.525940,612.130005 
	C858.160278,617.201294 852.561523,617.882446 846.533203,617.187500 
	C838.697693,616.284119 833.267456,607.984802 834.161316,598.144043 
	C845.886963,598.144043 857.650818,598.144043 869.731689,598.144043 
	C869.094971,595.131104 868.538025,592.495605 867.647949,589.152527 
M312.009064,603.078430 
	C312.086700,601.483154 312.164368,599.887817 312.239777,598.338135 
	C324.318481,598.338135 336.005219,598.338135 347.689545,598.338135 
	C348.459290,590.424011 344.122925,582.943481 336.488678,578.986572 
	C329.110229,575.162231 320.916534,575.447083 315.835358,580.844482 
	C308.536743,588.597290 303.614197,597.741272 310.065186,608.948242 
	C314.147858,616.040710 319.798309,621.265869 328.935852,621.069580 
	C336.418976,620.908691 341.679504,617.371338 346.397705,610.513672 
	C344.177368,610.775513 341.981781,610.446655 341.541626,611.176453 
	C336.636017,619.310486 328.860229,616.918213 321.736420,616.796509 
	C320.879944,616.781921 319.716370,616.137939 319.242798,615.422974 
	C316.747620,611.655396 314.428223,607.771423 312.009064,603.078430 
M396.995148,594.579834 
	C394.826019,604.410278 400.091858,616.338074 411.961761,620.542908 
	C419.353729,623.161438 430.017365,618.774719 434.232849,610.205383 
	C427.823059,615.109131 421.063080,618.458618 412.778503,617.040344 
	C406.019806,615.883179 400.243591,606.643921 401.601959,597.913940 
	C412.909332,597.913940 424.302643,597.913940 435.632935,597.913940 
	C436.655609,587.530396 431.020172,579.844116 421.731995,576.886230 
	C415.647644,574.948608 409.615051,576.464233 405.842133,579.664978 
	C401.935120,582.979492 397.110565,587.317383 396.995148,594.579834 
M668.956299,619.979431 
	C680.058655,623.208252 689.185364,619.219055 694.388733,608.863098 
	C696.753174,604.157227 693.707825,594.332581 688.959595,592.072021 
	C683.503479,589.474426 677.818176,587.349121 672.414978,584.652954 
	C669.423767,583.160400 666.445862,581.266846 664.153137,578.887939 
	C662.758606,577.440918 662.223938,574.749146 662.108643,572.573853 
	C661.884338,568.342407 665.114624,566.291321 668.229492,564.236023 
	C673.095642,561.025269 686.360291,561.785522 688.700745,570.109192 
	C689.834045,569.516968 690.915405,568.951904 692.670044,568.034973 
	C690.253601,565.691772 688.532104,563.077026 686.111145,561.894531 
	C682.401306,560.082397 677.849854,557.609436 674.303894,558.384094 
	C668.446045,559.663940 661.771423,560.719360 659.410645,568.738831 
	C657.721558,574.476929 657.667236,581.212646 662.674866,583.996704 
	C668.389099,587.173584 674.517273,589.726135 680.687988,591.925720 
	C686.141724,593.869812 691.520264,600.457764 691.009338,605.490967 
	C690.304260,612.437073 684.016296,616.494751 678.112732,617.109314 
	C670.138794,617.939331 665.456299,613.509094 660.921265,608.089905 
	C659.790710,606.738892 657.666443,606.219482 655.998962,605.317810 
	C658.378235,612.141113 662.177185,617.002319 668.956299,619.979431 
M994.565247,620.153809 
	C1006.088989,623.269897 1015.302490,618.607178 1024.924805,610.545227 
	C1022.636536,610.418030 1021.197754,609.899719 1020.232666,610.364563 
	C1017.043396,611.901001 1014.163696,614.121643 1010.916321,615.488342 
	C999.431702,620.321533 985.245789,615.667847 978.733154,605.218323 
	C972.967712,595.967773 974.163391,580.196838 979.585388,572.939819 
	C984.828003,565.922852 992.359253,562.324036 1000.534668,562.372986 
	C1006.105957,562.406311 1011.644836,565.858948 1017.228333,567.690918 
	C1018.230652,568.019836 1019.379639,567.901611 1020.460938,567.989807 
	C1020.053650,566.914612 1019.968262,565.375610 1019.189697,564.835266 
	C1010.489746,558.796265 1001.616211,556.843872 990.804321,560.287964 
	C980.888611,563.446594 975.033813,570.482239 971.721863,578.524841 
	C968.375122,586.651733 968.450562,596.847961 973.616089,604.626648 
	C978.291626,611.667419 984.427979,618.296875 994.565247,620.153809 
M707.981934,606.317627 
	C707.208435,616.981201 713.789551,622.968201 723.495544,620.661133 
	C725.292297,616.378784 722.173767,617.142273 719.781250,616.983154 
	C717.274780,616.816406 713.688782,618.103394 713.633789,613.711975 
	C713.502197,603.205322 713.591309,592.695923 713.591309,582.199219 
	C724.116943,581.653381 724.116943,581.653381 723.030273,577.762695 
	C719.861694,577.762695 716.595703,577.762695 712.890015,577.762695 
	C712.890015,573.350159 712.890015,569.273010 712.890015,564.929199 
	C711.010742,565.065735 709.614685,565.167175 707.771240,565.301086 
	C707.771240,569.700500 707.771240,573.770508 707.771240,577.794556 
	C699.917786,578.255127 699.917786,578.255127 700.854065,582.218933 
	C703.054688,582.218933 705.325378,582.218933 707.981873,582.218933 
	C707.981873,590.131897 707.981873,597.745178 707.981934,606.317627 
M928.993774,586.746948 
	C928.993713,594.394531 929.084167,602.043518 928.966614,609.689270 
	C928.861755,616.508362 935.257751,621.981201 941.674988,620.907166 
	C943.024353,620.681274 944.176758,619.278870 945.419861,618.418579 
	C943.981628,617.151672 943.339722,617.036072 942.695007,617.017334 
	C934.614075,616.781921 934.004211,616.166626 934.007080,608.231689 
	C934.010193,599.561157 934.007690,590.890625 934.007690,581.914368 
	C937.425720,581.914368 941.037476,581.914368 944.889709,581.914368 
	C944.889709,580.672485 945.007507,578.901733 944.872559,578.882263 
	C941.053833,578.331116 937.209656,577.956543 933.690796,577.586853 
	C933.690796,573.455139 933.690796,569.388123 933.690796,565.283691 
	C932.081177,565.283691 930.692688,565.283691 928.832520,565.283691 
	C928.832520,569.633606 928.832520,573.705505 928.832520,577.719666 
	C920.994629,578.320618 920.994629,578.320618 921.795959,582.099976 
	C924.058899,581.976135 926.351562,581.850647 928.994080,581.705994 
	C928.994080,582.867981 928.994080,584.342407 928.993774,586.746948 
M1032.979004,572.511963 
	C1032.979004,588.251648 1032.979004,603.991333 1032.979004,619.722656 
	C1035.265015,619.722656 1036.993896,619.722656 1038.734863,619.722656 
	C1038.734863,599.725586 1038.734863,580.024231 1038.734863,560.316895 
	C1036.728027,560.316895 1035.004395,560.316895 1032.979004,560.316895 
	C1032.979004,564.251892 1032.979004,567.885498 1032.979004,572.511963 
M358.009644,591.716797 
	C360.672333,597.949402 363.328003,604.184937 366.002045,610.412659 
	C366.800751,612.272766 367.573303,614.151001 368.502533,615.946045 
	C369.236176,617.363342 369.902405,619.384644 371.108643,619.869995 
	C373.643982,620.890015 375.030823,619.318237 376.044830,616.747131 
	C381.099304,603.931519 386.390717,591.209351 391.683075,578.247681 
	C390.452484,578.158508 389.018311,578.054626 387.940216,577.976501 
	C383.673096,588.231934 379.614594,598.254211 375.285828,608.158386 
	C374.442627,610.087646 372.548492,611.557617 371.157898,613.216980 
	C366.384552,601.707214 361.997620,590.940552 357.379944,580.273804 
	C356.894531,579.152466 355.049133,578.619934 352.765381,577.104797 
	C354.918396,582.853394 356.441406,586.919861 358.009644,591.716797 
M445.975525,603.498352 
	C445.975525,608.934631 445.975525,614.370850 445.975525,620.071289 
	C447.965881,619.942993 449.363922,619.852905 450.715515,619.765808 
	C450.715515,599.678528 450.715515,579.969788 450.715515,559.983215 
	C449.008636,560.097351 447.615936,560.190491 445.975494,560.300171 
	C445.975494,574.604004 445.975494,588.551392 445.975525,603.498352 
M1051.563965,578.028137 
	C1051.036987,578.858521 1050.035889,579.700500 1050.055786,580.517578 
	C1050.280151,589.753479 1050.622314,598.987244 1051.014160,608.218079 
	C1051.246582,613.692749 1053.930786,617.891235 1058.932251,619.852112 
	C1064.617432,622.080933 1070.312988,622.015808 1075.348755,616.564331 
	C1073.936890,616.759949 1073.069336,616.874512 1072.203613,617.001038 
	C1060.382812,618.728333 1055.011230,615.261780 1054.999634,602.051575 
	C1054.993652,595.236511 1055.121216,588.417114 1054.885254,581.610229 
	C1054.842773,580.384338 1053.324097,579.209595 1051.563965,578.028137 
M754.520325,617.012939 
	C751.781799,617.045715 748.990051,617.434143 746.316467,617.033630 
	C741.487427,616.310242 738.079285,610.963501 738.017395,604.421326 
	C737.943542,596.620728 737.932434,588.817993 738.030884,581.017944 
	C738.071838,577.772461 736.685303,577.505066 734.006775,578.569458 
	C734.006775,588.370605 733.694580,597.999939 734.161316,607.591309 
	C734.346619,611.398438 734.837219,615.555542 739.076294,618.112793 
	C746.038208,622.312927 750.904236,622.236145 758.330383,616.515137 
	C756.960266,616.730469 756.109619,616.864136 754.520325,617.012939 
M618.171692,584.008789 
	C617.240173,583.916870 616.308594,583.824951 615.724365,583.767273 
	C615.724365,581.703613 615.724365,580.014160 615.724365,578.284180 
	C614.125916,578.284180 612.728271,578.284180 611.230225,578.284180 
	C611.230225,592.258057 611.230225,605.961182 611.230225,619.758423 
	C612.873779,619.758423 614.264648,619.758423 615.733459,619.758423 
	C617.037720,607.717957 613.800659,595.499634 618.171692,584.008789 
M1085.998779,592.504883 
	C1085.998779,587.748352 1085.998779,582.991821 1085.998779,577.927734 
	C1083.975586,578.089355 1082.588501,578.200134 1080.978882,578.328735 
	C1080.978882,581.654236 1081.150513,584.634583 1080.946655,587.588989 
	C1080.341064,596.363586 1083.380249,605.699646 1077.068481,613.637207 
	C1076.957275,613.777039 1077.230103,614.222351 1077.367188,614.665100 
	C1078.788330,614.496338 1080.233887,614.324585 1081.768066,614.142395 
	C1081.969971,616.299500 1082.134155,618.052856 1082.298340,619.806213 
	C1082.789062,620.031555 1083.279785,620.256897 1083.770630,620.482239 
	C1084.512817,619.286621 1085.867432,618.106384 1085.897949,616.892883 
	C1086.093262,609.100525 1085.998291,601.300842 1085.998779,592.504883 
M884.014404,581.865845 
	C883.918884,580.623718 883.823303,579.381653 883.707764,577.878967 
	C881.918762,578.075439 880.534790,578.227478 879.203125,578.373718 
	C879.203125,592.372986 879.203125,605.972107 879.203125,619.790100 
	C880.805725,619.790100 882.199463,619.790100 884.018616,619.790100 
	C884.018616,611.476624 883.788513,603.347839 884.121826,595.242249 
	C884.273987,591.542480 885.537659,587.888489 886.331726,584.046570 
	C886.215454,583.980896 885.029663,583.310669 884.014404,581.865845 
M765.634155,578.177368 
	C765.423462,581.286316 765.218933,584.395752 765.000854,587.504211 
	C764.445618,595.418640 766.398376,603.513306 761.935181,611.205566 
	C761.068542,612.699280 765.004639,617.018005 766.837952,619.963562 
	C766.978333,620.189026 768.018616,619.854309 768.997986,619.737305 
	C768.997986,606.604187 769.045959,593.633301 768.892578,580.664734 
	C768.882080,579.777893 767.362915,578.908813 765.634155,578.177368 
M628.544067,581.004028 
	C630.253052,581.116638 631.962097,581.229309 633.670959,581.349915 
	C633.962952,577.073608 631.759460,574.819214 628.362793,576.346130 
	C625.029236,577.844666 621.984619,579.986023 618.813232,581.845276 
	C618.975586,582.298767 619.138000,582.752258 619.300415,583.205750 
	C620.490234,583.024048 621.709900,582.951172 622.862671,582.634460 
	C624.502014,582.184021 626.092102,581.554260 628.544067,581.004028 
z"/>
<path fill="#3B74BA" opacity="1.000000" stroke="none" 
	d="
M363.163330,121.063553 
	C363.943451,113.194595 370.613892,106.756317 378.327179,106.807747 
	C430.313538,107.154373 482.306488,106.707207 534.288940,107.279747 
	C545.462524,107.402817 556.818909,109.814354 567.699585,112.665779 
	C580.129578,115.923248 592.329590,120.338425 604.254944,125.174324 
	C621.052917,131.986130 635.462463,142.641647 649.115479,154.526917 
	C663.655212,167.184158 674.891479,182.360703 684.140442,198.979843 
	C692.028625,213.153946 697.046082,228.585129 700.958435,244.340942 
	C706.909851,268.308746 707.495667,292.716675 706.909119,317.205597 
	C706.828247,320.582397 705.795593,323.936401 704.773682,327.890167 
	C700.537781,333.176056 697.388733,338.676605 692.805542,342.422516 
	C677.519531,354.916077 653.121216,351.409119 641.700928,335.171936 
	C638.289368,330.321442 636.412903,324.391174 633.888428,318.492310 
	C633.669312,304.755157 633.805237,291.457184 633.025146,278.213135 
	C631.829041,257.905243 626.596191,238.650116 616.015259,221.068741 
	C610.004089,211.080627 602.542175,202.293182 593.376343,195.101395 
	C573.007874,179.119705 548.893677,174.218536 523.932251,173.267654 
	C501.494415,172.412949 479.000946,173.010971 456.532043,172.982498 
	C443.450470,172.965912 440.308380,175.123489 435.825958,187.081116 
	C435.588013,187.251389 435.430511,187.390915 435.451935,187.428497 
	C435.562897,187.623276 435.719574,187.792007 435.936707,188.434891 
	C436.022858,203.525787 436.058746,218.151627 436.036804,232.777374 
	C435.996674,259.531982 435.922333,286.286530 435.598206,313.332581 
	C435.228058,316.085358 435.121887,318.546722 435.012848,321.335388 
	C435.298004,322.431152 435.586060,323.199646 435.952576,324.341919 
	C435.988770,325.475189 435.946472,326.234650 435.539551,326.997742 
	C434.248535,327.989655 433.112793,328.851257 432.426910,329.985016 
	C420.004791,350.519409 396.180481,356.441650 377.867065,342.637054 
	C372.268066,338.416565 368.621460,331.606079 364.052795,325.586029 
	C363.994049,324.132660 363.963257,323.074982 363.955994,321.548096 
	C363.986389,255.989853 363.999146,190.900803 363.965027,125.811783 
	C363.964203,124.228897 363.442230,122.646294 363.163330,121.063553 
z"/>
<path fill="#3B74BA" opacity="1.000000" stroke="none" 
	d="
M759.149902,329.046051 
	C758.415466,322.321655 757.411072,315.612701 757.024902,308.868347 
	C756.660889,302.510834 756.771729,296.110199 756.983704,289.738831 
	C757.493164,274.422302 759.801208,259.387207 764.049072,244.624359 
	C769.007996,227.390686 776.455933,211.223740 785.832886,196.088669 
	C792.012695,186.114029 799.721741,177.075607 806.883179,167.722946 
	C817.910034,153.322266 832.202026,142.255661 847.240906,132.852081 
	C861.515625,123.926270 877.249573,117.001389 892.984009,110.835182 
	C909.164124,104.494308 926.320190,101.932327 943.861145,100.689972 
	C966.907043,99.057724 989.088806,102.473846 1011.110535,108.141914 
	C1018.653564,110.083389 1026.051392,112.931610 1033.153687,116.161224 
	C1043.385986,120.814087 1053.637329,125.618896 1063.219482,131.445801 
	C1070.791992,136.050613 1077.404053,142.248856 1084.370728,147.829117 
	C1087.138916,150.046417 1089.983887,152.264435 1092.328979,154.896423 
	C1101.716064,165.432251 1111.302734,175.826416 1120.083130,186.856155 
	C1128.535645,197.473953 1129.401123,209.972214 1124.801025,222.325516 
	C1120.407837,234.123093 1111.420898,241.452682 1098.887207,244.005859 
	C1081.325562,247.583298 1068.783325,239.983627 1059.068726,226.077881 
	C1046.445801,208.008957 1030.977417,192.830048 1011.534485,182.374634 
	C989.809998,170.692291 966.705505,165.784821 941.715759,168.597015 
	C926.401428,170.320389 912.230957,174.533722 898.909851,181.667984 
	C886.377625,188.379776 875.066833,196.840393 865.510254,207.631866 
	C855.895752,218.488770 847.743896,230.289246 841.463867,243.267136 
	C835.468445,255.656876 831.099731,268.791595 830.161743,282.573212 
	C829.357727,294.387604 829.987061,306.299530 829.670776,318.845184 
	C828.565308,321.879272 827.805725,324.248627 826.972290,326.591736 
	C821.478210,342.037811 803.088074,352.069000 787.002991,349.304565 
	C774.120544,347.090515 765.344971,340.044189 759.149902,329.046051 
z"/>
<path fill="#FBA81A" opacity="1.000000" stroke="none" 
	d="
M139.033966,324.717407 
	C130.484192,323.932343 123.037170,316.245239 123.824272,306.946716 
	C124.468391,299.337402 124.264763,291.614502 123.878181,283.970215 
	C123.380196,274.123138 131.476105,267.207001 140.692688,266.772797 
	C157.394928,265.985962 174.120621,264.589905 190.138474,259.040039 
	C200.600159,255.415237 209.354935,249.285873 214.497543,239.501297 
	C217.389740,233.998474 218.748856,227.492371 219.800034,221.269562 
	C221.107666,213.528534 220.951447,205.685577 218.963989,197.900269 
	C215.757156,185.338470 207.627136,176.327591 196.799835,170.726730 
	C179.892822,161.980942 161.399261,160.522934 142.927414,164.751480 
	C124.681587,168.928284 112.683388,181.373306 104.329697,197.496429 
	C101.109032,203.712509 99.099358,210.551453 95.942451,216.806046 
	C88.683754,231.187302 71.034340,237.613190 55.511620,233.358414 
	C32.144665,226.953552 23.933344,199.734924 35.096706,179.964523 
	C40.404041,170.565201 44.968636,160.633820 51.223137,151.914261 
	C57.260223,143.497833 64.443977,135.665924 72.173401,128.750092 
	C89.112206,113.594261 109.229889,103.663376 131.629074,100.675186 
	C147.423904,98.568039 163.695389,100.167625 179.747330,99.810036 
	C191.782852,99.541924 203.278519,102.163925 214.446213,106.072403 
	C222.759766,108.981979 230.913208,112.542641 238.761993,116.549728 
	C260.902924,127.853508 276.272339,145.775970 285.783752,168.358978 
	C289.592499,177.402069 291.462616,187.476883 292.809723,197.275284 
	C293.944702,205.530853 293.430725,214.087372 292.967896,222.473221 
	C291.937836,241.136215 284.832855,257.295532 272.371490,271.296967 
	C263.860352,280.859955 253.098602,287.075531 242.271622,293.365234 
	C240.267014,294.529755 238.786987,296.597260 236.731323,298.749817 
	C221.363159,304.418701 206.417648,309.868652 191.259293,314.642883 
	C182.656158,317.352539 173.764374,319.268677 164.892426,320.966583 
	C156.346680,322.602142 147.659195,323.497070 139.033966,324.717407 
z"/>
<path fill="#3F5FAC" opacity="1.000000" stroke="none" 
	d="
M364.080719,325.981689 
	C368.621460,331.606079 372.268066,338.416565 377.867065,342.637054 
	C396.180481,356.441650 420.004791,350.519409 432.426910,329.985016 
	C433.112793,328.851257 434.248535,327.989655 435.597656,327.464294 
	C436.026917,355.233643 436.018707,382.540192 436.048126,409.846649 
	C436.058167,419.167664 442.277649,427.098297 450.393188,426.962189 
	C481.100433,426.447266 511.875336,429.161926 542.513245,424.959930 
	C554.650513,423.295319 566.543030,420.673187 577.329285,414.851593 
	C607.914795,398.343933 624.531250,371.821014 630.922668,338.297516 
	C632.142700,331.897888 632.875549,325.405334 633.833130,318.955627 
	C636.412903,324.391174 638.289368,330.321442 641.700928,335.171936 
	C653.121216,351.409119 677.519531,354.916077 692.805542,342.422516 
	C697.388733,338.676605 700.537781,333.176056 704.596191,328.267334 
	C703.071289,338.674744 701.883118,349.435699 699.374695,359.879517 
	C695.865051,374.491455 690.766113,388.721405 682.908630,401.582275 
	C676.634033,411.852203 669.445068,421.609802 662.119324,431.179413 
	C653.083069,442.983521 641.200195,451.874603 629.063843,460.119202 
	C615.825806,469.112244 601.476257,476.474762 585.992981,480.732910 
	C571.234375,484.791779 556.162048,487.777557 541.130188,490.740509 
	C535.505066,491.849274 529.604919,491.562225 523.068359,491.592285 
	C521.653320,491.182404 521.000061,491.012756 520.346802,491.012573 
	C473.830505,490.999725 427.314240,490.993774 380.797974,491.035248 
	C379.553406,491.036346 378.309296,491.562836 377.064972,491.844299 
	C369.703369,491.001038 365.252655,486.512634 363.376526,477.014282 
	C363.807526,474.506714 363.986359,472.687225 363.987946,470.867615 
	C364.030029,422.572296 364.053833,374.277008 364.080719,325.981689 
z"/>
<path fill="#3F5FAC" opacity="1.000000" stroke="none" 
	d="
M759.082947,329.469421 
	C765.344971,340.044189 774.120544,347.090515 787.002991,349.304565 
	C803.088074,352.069000 821.478210,342.037811 826.972290,326.591736 
	C827.805725,324.248627 828.565308,321.879272 829.614197,319.280579 
	C832.550415,328.418976 834.747253,337.971313 838.013428,347.142822 
	C844.787354,366.164246 856.320496,382.378265 870.325012,396.621277 
	C883.140503,409.654877 898.954651,418.299713 916.089539,424.682251 
	C933.502319,431.168274 951.317627,431.807953 969.575256,430.224640 
	C981.727478,429.170807 992.660461,424.931213 1003.639038,420.175873 
	C1027.118286,410.005829 1044.295044,392.594452 1059.218994,372.546326 
	C1066.570557,362.670593 1074.367554,353.700195 1087.281250,350.914978 
	C1099.323608,348.317719 1109.145508,352.488159 1117.908081,360.080322 
	C1126.185913,367.252350 1130.231445,376.572388 1129.901123,387.507019 
	C1129.687256,394.585114 1127.514404,401.104553 1123.075317,406.876556 
	C1117.887939,413.621796 1113.514404,421.041443 1107.938477,427.426880 
	C1101.020386,435.349304 1093.942871,443.439819 1085.655396,449.788513 
	C1072.610718,459.781647 1059.131836,469.583374 1044.648682,477.210083 
	C1031.931763,483.906647 1017.736206,487.990295 1003.914856,492.342438 
	C988.310303,497.256165 972.020630,498.906586 955.729309,498.868958 
	C939.601257,498.831726 923.611328,496.846924 907.864807,492.951508 
	C886.219482,487.596863 866.037354,478.548004 847.599060,466.484680 
	C825.566589,452.069794 806.463196,434.019104 791.652649,411.956299 
	C781.248108,396.456940 772.191772,380.151093 766.786560,362.192139 
	C763.600098,351.605133 761.567505,340.670898 759.082947,329.469421 
z"/>
<path fill="#F57F20" opacity="1.000000" stroke="none" 
	d="
M139.491119,324.817932 
	C147.659195,323.497070 156.346680,322.602142 164.892426,320.966583 
	C173.764374,319.268677 182.656158,317.352539 191.259293,314.642883 
	C206.417648,309.868652 221.363159,304.418701 236.742126,299.105164 
	C244.207535,303.287079 251.463089,307.410736 258.423431,311.983765 
	C276.474579,323.843689 286.460205,341.154053 291.005829,361.825378 
	C296.726776,387.841827 294.123444,412.892120 282.101929,436.921783 
	C274.325836,452.465393 263.449921,464.914703 249.030777,474.711670 
	C230.606339,487.230011 210.412552,494.752747 188.445389,496.901276 
	C173.148468,498.397430 157.664383,499.199524 142.323273,498.651031 
	C129.269394,498.184296 116.581657,494.394073 104.506210,488.950897 
	C91.844467,483.243439 79.933090,476.260162 69.853294,466.776611 
	C62.967514,460.298065 56.477100,453.089417 51.231075,445.255493 
	C44.513027,435.223450 38.825813,424.431061 33.474045,413.581696 
	C30.492962,407.538269 28.478371,400.839844 27.126411,394.212555 
	C25.059244,384.079163 33.613869,367.401703 42.823669,361.992828 
	C58.707561,352.664307 72.090195,353.206207 86.461601,364.372864 
	C94.206375,370.390656 97.334908,379.509735 99.927361,388.453766 
	C104.478119,404.153931 113.398811,416.822205 126.761215,425.609161 
	C133.322601,429.923920 141.678558,431.950073 149.508820,433.798401 
	C163.542435,437.110901 177.329224,433.815765 190.618118,429.579376 
	C205.240982,424.917786 217.756668,410.033691 220.107086,393.413696 
	C221.553436,383.186493 220.096512,373.204193 217.473709,363.806396 
	C214.289230,352.396057 207.606873,342.871735 196.161789,336.855133 
	C178.390213,327.512756 159.470688,325.177582 139.491119,324.817932 
z"/>
<path fill="#3B74BA" opacity="1.000000" stroke="none" 
	d="
M1169.159424,163.998840 
	C1149.416626,154.171661 1144.484375,134.964508 1152.222046,116.884293 
	C1157.511475,104.524834 1175.898438,96.205467 1188.923218,99.465012 
	C1208.499023,104.364021 1215.122437,116.031891 1216.584473,131.946793 
	C1217.424561,141.091843 1213.517090,149.936508 1206.624512,156.677643 
	C1199.523315,163.622696 1190.967041,167.536087 1180.903931,166.853836 
	C1177.069580,166.593887 1173.321899,165.052216 1169.159424,163.998840 
z"/>
<path fill="#189E59" opacity="1.000000" stroke="none" 
	d="
M165.250427,589.762024 
	C160.139282,586.503052 155.081299,583.156555 149.901062,580.011414 
	C145.306152,577.221619 140.509201,574.764099 135.920837,571.964172 
	C129.642853,568.133240 129.312927,560.579773 131.433563,554.404785 
	C133.260025,549.086304 141.043045,545.548218 146.649521,547.584412 
	C152.250656,549.618652 157.606766,552.470154 162.813278,555.417480 
	C172.297928,560.786560 181.591080,566.493896 190.967316,572.054749 
	C193.910217,573.800049 196.724808,575.845154 199.837341,577.205750 
	C209.839813,581.578247 210.475571,597.810181 198.400681,602.962952 
	C197.803452,603.217834 197.193222,603.442261 195.861237,603.829834 
	C192.021408,603.136719 188.652313,602.794861 185.847900,601.354004 
	C178.845413,597.756042 172.099380,593.658875 165.250427,589.762024 
z"/>
<path fill="#557DBF" opacity="1.000000" stroke="none" 
	d="
M72.032944,589.130249 
	C73.344414,590.414978 74.470581,592.004639 75.998528,592.933228 
	C83.764313,597.652527 91.466019,602.523010 99.513535,606.720642 
	C108.075203,611.186401 108.760910,620.068848 104.892975,626.261169 
	C101.453217,631.767944 91.286469,632.372681 84.769409,628.376160 
	C72.144867,620.634216 59.175682,613.455994 46.403385,605.952209 
	C42.604710,603.720459 38.732826,601.491577 35.340286,598.716431 
	C29.020300,593.546570 29.599470,584.121460 36.334522,579.311279 
	C38.316406,577.895813 40.596024,576.897278 43.334862,575.429077 
	C46.884251,576.085022 50.056637,576.607422 52.748283,578.035767 
	C59.295311,581.510071 65.619179,585.404846 72.032944,589.130249 
z"/>
<path fill="#FABC12" opacity="1.000000" stroke="none" 
	d="
M165.103821,590.109619 
	C172.099380,593.658875 178.845413,597.756042 185.847900,601.354004 
	C188.652313,602.794861 192.021408,603.136719 195.547546,603.994141 
	C184.228607,610.709595 172.495819,617.410156 160.762344,624.109497 
	C156.656906,626.453491 152.700958,629.131897 148.407211,631.056152 
	C142.254547,633.813416 135.226334,631.158875 131.893539,625.353577 
	C128.558960,619.545166 129.848526,611.552429 135.484558,607.971924 
	C145.126389,601.846619 155.114517,596.266357 165.103821,590.109619 
z"/>
<path fill="#EB4536" opacity="1.000000" stroke="none" 
	d="
M72.360336,588.979736 
	C65.619179,585.404846 59.295311,581.510071 52.748283,578.035767 
	C50.056637,576.607422 46.884251,576.085022 43.553619,575.156372 
	C46.214302,573.178589 49.175175,571.063721 52.303169,569.234680 
	C63.978878,562.407410 75.633698,555.537842 87.449776,548.959839 
	C93.793884,545.428101 103.871635,548.502014 106.680206,554.372681 
	C109.597786,560.471252 105.872475,570.140076 99.414444,573.716736 
	C90.461639,578.674988 81.592613,583.784485 72.360336,588.979736 
z"/>
<path fill="#6B6F75" opacity="1.000000" stroke="none" 
	d="
M252.987335,614.881348 
	C252.987305,596.436584 252.987305,578.480469 252.987305,559.812744 
	C263.154083,561.010193 272.883972,558.483887 282.696106,562.271912 
	C293.558929,566.465515 298.866791,574.210754 299.862701,585.054993 
	C300.578186,592.845459 300.244141,600.559998 295.156311,607.607056 
	C290.636292,613.867615 284.731323,617.593506 277.676147,618.792847 
	C269.782593,620.134705 261.633728,619.974731 253.269913,620.488342 
	C253.146805,618.258301 253.067078,616.814148 252.987335,614.881348 
M274.077271,613.986145 
	C278.516876,612.029602 283.258301,610.556274 287.330994,608.012329 
	C294.946503,603.255371 295.517181,587.621521 293.152283,580.248840 
	C290.759674,572.789917 285.810425,567.974426 278.474823,566.401001 
	C272.279572,565.072144 265.785156,565.138000 259.058746,564.554932 
	C259.058746,581.531067 259.058746,597.552979 259.058746,614.011658 
	C263.935242,614.011658 268.548553,614.011658 274.077271,613.986145 
z"/>
<path fill="#686D73" opacity="1.000000" stroke="none" 
	d="
M511.982971,599.000122 
	C511.982971,591.859131 511.982971,585.218140 511.982971,578.293823 
	C513.708130,578.293823 515.102234,578.293823 516.849976,578.293823 
	C516.958923,580.084900 517.066528,581.853516 517.230713,584.552490 
	C519.816956,582.994019 522.206238,582.008911 524.013794,580.378723 
	C529.181213,575.718323 538.553589,574.724243 543.689087,579.455566 
	C549.787598,585.074219 555.427795,591.538574 553.953735,600.770447 
	C552.029358,612.822205 543.910034,622.220642 531.079651,620.787781 
	C527.470642,620.384827 524.176575,617.185730 520.730896,615.281860 
	C519.800232,614.767578 518.843933,614.299927 517.224792,613.461609 
	C517.224792,622.258667 517.224792,630.315430 517.224792,638.704834 
	C515.397522,638.850769 513.999084,638.962402 511.982971,639.123413 
	C511.982971,625.719482 511.982971,612.609802 511.982971,599.000122 
M518.219604,602.814636 
	C520.798767,612.024597 527.799927,617.159668 535.160461,615.643738 
	C547.584839,613.084900 550.934448,598.214905 545.155823,588.843445 
	C539.825867,580.199646 529.120483,579.158264 522.348145,586.274780 
	C518.210449,590.622742 517.541992,596.209717 518.219604,602.814636 
z"/>
<path fill="#696E74" opacity="1.000000" stroke="none" 
	d="
M1136.516113,588.726501 
	C1140.548706,595.087646 1139.377686,605.899597 1135.131470,612.024902 
	C1130.975342,618.020386 1125.675781,621.810791 1118.523071,620.781555 
	C1114.460693,620.196960 1110.746460,617.236023 1106.856934,615.384460 
	C1105.463135,614.721069 1104.014526,614.172791 1102.164673,613.392029 
	C1102.040771,616.163818 1101.967407,617.801819 1101.894165,619.439880 
	C1101.536255,619.765869 1101.178223,620.091858 1100.820312,620.417847 
	C1099.876953,619.415466 1098.119873,618.420166 1098.110962,617.409668 
	C1097.947021,598.474060 1097.990356,579.536621 1097.990356,560.301941 
	C1099.705200,560.301941 1101.094360,560.301941 1102.747314,560.301941 
	C1102.747314,568.170837 1102.747314,576.019958 1102.747314,584.758179 
	C1106.107666,582.431580 1108.419922,580.558105 1110.974121,579.112183 
	C1119.256226,574.423828 1123.210938,575.517212 1130.948242,580.650024 
	C1133.384155,582.265991 1134.517090,585.846436 1136.516113,588.726501 
M1121.866577,581.981812 
	C1115.143799,581.009827 1109.747192,582.986328 1106.230103,589.067017 
	C1102.711182,595.151245 1102.845703,601.425354 1105.856201,607.549744 
	C1108.466064,612.859009 1113.061035,616.027954 1118.961914,615.827576 
	C1124.845215,615.627869 1129.554443,612.271729 1131.636597,606.806030 
	C1134.895874,598.250122 1134.030029,586.829956 1121.866577,581.981812 
z"/>
<path fill="#686E74" opacity="1.000000" stroke="none" 
	d="
M810.789612,615.555054 
	C806.735168,617.611694 803.017578,620.179382 798.989563,620.832397 
	C790.746338,622.168701 783.216675,614.723511 780.016663,607.895447 
	C775.893555,599.097900 778.113586,591.488281 784.065552,584.296448 
	C791.095459,575.802185 800.942017,573.721558 808.976318,579.616638 
	C810.791931,580.948792 812.141235,582.916565 813.705139,584.591797 
	C814.396545,584.315552 815.087952,584.039307 815.779358,583.763062 
	C815.515747,580.049927 815.142334,576.340454 815.018433,572.622681 
	C814.885925,568.647705 814.988586,564.664917 814.988586,560.326660 
	C816.615295,560.198059 818.006653,560.088135 819.718506,559.952820 
	C819.718506,580.003784 819.718506,599.751282 819.718506,619.763306 
	C818.313599,619.763306 816.907166,619.763306 815.630798,619.763306 
	C815.764160,617.991882 815.893555,616.273438 816.101135,613.517090 
	C813.965027,614.219604 812.475525,614.709534 810.789612,615.555054 
M786.817322,608.387268 
	C790.712830,614.055359 796.175110,616.750610 801.354736,615.560486 
	C812.655762,612.963745 817.760925,600.539001 811.944275,589.620361 
	C809.350647,584.751831 805.353210,582.107422 799.678284,581.738525 
	C793.512939,581.337830 789.677002,584.617554 786.796631,589.341431 
	C783.151306,595.319885 784.023315,601.589905 786.817322,608.387268 
z"/>
<path fill="#696E74" opacity="1.000000" stroke="none" 
	d="
M465.615540,584.729370 
	C468.843872,577.508728 482.737244,574.407104 489.955719,578.207520 
	C497.392334,582.122864 501.459595,587.677063 503.304352,595.561523 
	C504.776367,601.852722 500.113495,613.102173 494.689636,616.790039 
	C485.623505,622.954407 476.414764,622.406799 468.250610,616.222839 
	C464.700348,613.533630 462.237396,608.045776 461.416901,603.447815 
	C460.295105,597.161438 459.724121,590.177612 465.615540,584.729370 
M468.318695,589.192566 
	C467.714233,591.073853 466.944611,592.919983 466.535248,594.842773 
	C465.127472,601.454956 466.696320,607.383728 471.636383,611.991028 
	C476.488403,616.516174 482.972778,617.124939 488.640106,614.187744 
	C496.178528,610.280762 499.440735,599.558777 496.243530,591.252197 
	C492.791290,582.282959 477.663727,576.197876 468.318695,589.192566 
z"/>
<path fill="#686D73" opacity="1.000000" stroke="none" 
	d="
M568.201904,615.734009 
	C559.697876,606.008850 558.812439,596.480896 564.366943,587.187378 
	C568.026306,581.064697 573.009644,577.713928 579.608643,576.137634 
	C584.492310,574.971069 593.687195,580.013916 596.593811,584.361023 
	C599.353760,588.488770 601.882324,592.329407 600.630493,598.015137 
	C589.191711,598.015137 577.785034,598.015137 564.853943,598.015137 
	C566.613586,603.590881 567.196838,608.892151 569.792297,612.885559 
	C574.110840,619.530090 588.650085,618.391235 594.743103,611.763611 
	C595.547485,610.888611 597.236206,610.826660 598.671631,610.935730 
	C593.818237,621.255127 579.416321,624.979675 568.201904,615.734009 
M583.232605,581.822327 
	C573.737915,581.779541 569.009521,585.467590 568.197388,593.773560 
	C577.057190,593.773560 585.892822,593.773560 594.761841,593.773560 
	C593.912231,587.022522 590.349915,583.128479 583.232605,581.822327 
z"/>
<path fill="#FBA819" opacity="1.000000" stroke="none" 
	d="
M1231.016113,94.190186 
	C1233.373047,85.921623 1241.516846,82.280075 1249.599365,85.013153 
	C1255.973755,87.168610 1259.663818,94.785133 1257.772461,102.189400 
	C1256.242920,108.177063 1247.743286,113.247253 1241.309570,112.009895 
	C1234.081421,110.619751 1229.620239,103.098335 1231.016113,94.190186 
z"/>
<path fill="#686D73" opacity="1.000000" stroke="none" 
	d="
M867.814453,589.506287 
	C868.538025,592.495605 869.094971,595.131104 869.731689,598.144043 
	C857.650818,598.144043 845.886963,598.144043 834.161316,598.144043 
	C833.267456,607.984802 838.697693,616.284119 846.533203,617.187500 
	C852.561523,617.882446 858.160278,617.201294 862.525940,612.130005 
	C863.503174,610.994873 865.637451,610.855774 867.483215,610.900513 
	C861.537231,618.880676 854.258606,622.982971 844.191711,620.147400 
	C831.194824,616.486450 824.469910,599.253174 831.933044,587.568115 
	C835.723328,581.633728 841.078918,577.379700 848.247131,576.017395 
	C852.886353,575.135681 862.061096,580.123108 864.478027,584.558350 
	C865.363403,586.183044 866.581604,587.626404 867.814453,589.506287 
M835.991211,592.059143 
	C836.497986,592.709717 836.996948,593.920105 837.512756,593.927307 
	C845.914490,594.045227 854.318420,594.010864 862.942688,594.010864 
	C862.828064,592.743652 862.969299,591.845642 862.649536,591.163818 
	C860.333008,586.225281 857.436768,582.254944 851.176575,581.731689 
	C843.522827,581.091980 839.063293,584.756348 835.991211,592.059143 
z"/>
<path fill="#686D73" opacity="1.000000" stroke="none" 
	d="
M312.028442,603.503174 
	C314.428223,607.771423 316.747620,611.655396 319.242798,615.422974 
	C319.716370,616.137939 320.879944,616.781921 321.736420,616.796509 
	C328.860229,616.918213 336.636017,619.310486 341.541626,611.176453 
	C341.981781,610.446655 344.177368,610.775513 346.397705,610.513672 
	C341.679504,617.371338 336.418976,620.908691 328.935852,621.069580 
	C319.798309,621.265869 314.147858,616.040710 310.065186,608.948242 
	C303.614197,597.741272 308.536743,588.597290 315.835358,580.844482 
	C320.916534,575.447083 329.110229,575.162231 336.488678,578.986572 
	C344.122925,582.943481 348.459290,590.424011 347.689545,598.338135 
	C336.005219,598.338135 324.318481,598.338135 312.239777,598.338135 
	C312.164368,599.887817 312.086700,601.483154 312.028442,603.503174 
M329.280273,581.801880 
	C320.047699,581.886536 315.371552,585.674561 314.491241,593.836731 
	C323.248962,593.836731 331.998810,593.836731 340.741180,593.836731 
	C340.913483,587.180298 337.350067,583.226929 329.280273,581.801880 
z"/>
<path fill="#686D73" opacity="1.000000" stroke="none" 
	d="
M396.996887,594.161865 
	C397.110565,587.317383 401.935120,582.979492 405.842133,579.664978 
	C409.615051,576.464233 415.647644,574.948608 421.731995,576.886230 
	C431.020172,579.844116 436.655609,587.530396 435.632935,597.913940 
	C424.302643,597.913940 412.909332,597.913940 401.601959,597.913940 
	C400.243591,606.643921 406.019806,615.883179 412.778503,617.040344 
	C421.063080,618.458618 427.823059,615.109131 434.232849,610.205383 
	C430.017365,618.774719 419.353729,623.161438 411.961761,620.542908 
	C400.091858,616.338074 394.826019,604.410278 396.996887,594.161865 
M424.332733,583.857178 
	C414.429474,578.248352 404.112305,583.722717 403.229889,593.760803 
	C412.079834,593.760803 420.905579,593.760803 431.529938,593.760803 
	C428.867310,589.933350 426.913574,587.124939 424.332733,583.857178 
z"/>
<path fill="#666B71" opacity="1.000000" stroke="none" 
	d="
M668.575195,619.842407 
	C662.177185,617.002319 658.378235,612.141113 655.998962,605.317810 
	C657.666443,606.219482 659.790710,606.738892 660.921265,608.089905 
	C665.456299,613.509094 670.138794,617.939331 678.112732,617.109314 
	C684.016296,616.494751 690.304260,612.437073 691.009338,605.490967 
	C691.520264,600.457764 686.141724,593.869812 680.687988,591.925720 
	C674.517273,589.726135 668.389099,587.173584 662.674866,583.996704 
	C657.667236,581.212646 657.721558,574.476929 659.410645,568.738831 
	C661.771423,560.719360 668.446045,559.663940 674.303894,558.384094 
	C677.849854,557.609436 682.401306,560.082397 686.111145,561.894531 
	C688.532104,563.077026 690.253601,565.691772 692.670044,568.034973 
	C690.915405,568.951904 689.834045,569.516968 688.700745,570.109192 
	C686.360291,561.785522 673.095642,561.025269 668.229492,564.236023 
	C665.114624,566.291321 661.884338,568.342407 662.108643,572.573853 
	C662.223938,574.749146 662.758606,577.440918 664.153137,578.887939 
	C666.445862,581.266846 669.423767,583.160400 672.414978,584.652954 
	C677.818176,587.349121 683.503479,589.474426 688.959595,592.072021 
	C693.707825,594.332581 696.753174,604.157227 694.388733,608.863098 
	C689.185364,619.219055 680.058655,623.208252 668.575195,619.842407 
z"/>
<path fill="#666B71" opacity="1.000000" stroke="none" 
	d="
M994.143188,620.084778 
	C984.427979,618.296875 978.291626,611.667419 973.616089,604.626648 
	C968.450562,596.847961 968.375122,586.651733 971.721863,578.524841 
	C975.033813,570.482239 980.888611,563.446594 990.804321,560.287964 
	C1001.616211,556.843872 1010.489746,558.796265 1019.189697,564.835266 
	C1019.968262,565.375610 1020.053650,566.914612 1020.460938,567.989807 
	C1019.379639,567.901611 1018.230652,568.019836 1017.228333,567.690918 
	C1011.644836,565.858948 1006.105957,562.406311 1000.534668,562.372986 
	C992.359253,562.324036 984.828003,565.922852 979.585388,572.939819 
	C974.163391,580.196838 972.967712,595.967773 978.733154,605.218323 
	C985.245789,615.667847 999.431702,620.321533 1010.916321,615.488342 
	C1014.163696,614.121643 1017.043396,611.901001 1020.232666,610.364563 
	C1021.197754,609.899719 1022.636536,610.418030 1024.924805,610.545227 
	C1015.302490,618.607178 1006.088989,623.269897 994.143188,620.084778 
z"/>
<path fill="#646A70" opacity="1.000000" stroke="none" 
	d="
M707.981934,605.838013 
	C707.981873,597.745178 707.981873,590.131897 707.981873,582.218933 
	C705.325378,582.218933 703.054688,582.218933 700.854065,582.218933 
	C699.917786,578.255127 699.917786,578.255127 707.771240,577.794556 
	C707.771240,573.770508 707.771240,569.700500 707.771240,565.301086 
	C709.614685,565.167175 711.010742,565.065735 712.890015,564.929199 
	C712.890015,569.273010 712.890015,573.350159 712.890015,577.762695 
	C716.595703,577.762695 719.861694,577.762695 723.030273,577.762695 
	C724.116943,581.653381 724.116943,581.653381 713.591309,582.199219 
	C713.591309,592.695923 713.502197,603.205322 713.633789,613.711975 
	C713.688782,618.103394 717.274780,616.816406 719.781250,616.983154 
	C722.173767,617.142273 725.292297,616.378784 723.495544,620.661133 
	C713.789551,622.968201 707.208435,616.981201 707.981934,605.838013 
z"/>
<path fill="#666B71" opacity="1.000000" stroke="none" 
	d="
M928.993896,586.281860 
	C928.994080,584.342407 928.994080,582.867981 928.994080,581.705994 
	C926.351562,581.850647 924.058899,581.976135 921.795959,582.099976 
	C920.994629,578.320618 920.994629,578.320618 928.832520,577.719666 
	C928.832520,573.705505 928.832520,569.633606 928.832520,565.283691 
	C930.692688,565.283691 932.081177,565.283691 933.690796,565.283691 
	C933.690796,569.388123 933.690796,573.455139 933.690796,577.586853 
	C937.209656,577.956543 941.053833,578.331116 944.872559,578.882263 
	C945.007507,578.901733 944.889709,580.672485 944.889709,581.914368 
	C941.037476,581.914368 937.425720,581.914368 934.007690,581.914368 
	C934.007690,590.890625 934.010193,599.561157 934.007080,608.231689 
	C934.004211,616.166626 934.614075,616.781921 942.695007,617.017334 
	C943.339722,617.036072 943.981628,617.151672 945.419861,618.418579 
	C944.176758,619.278870 943.024353,620.681274 941.674988,620.907166 
	C935.257751,621.981201 928.861755,616.508362 928.966614,609.689270 
	C929.084167,602.043518 928.993713,594.394531 928.993896,586.281860 
z"/>
<path fill="#646A70" opacity="1.000000" stroke="none" 
	d="
M1032.979004,572.015503 
	C1032.979004,567.885498 1032.979004,564.251892 1032.979004,560.316895 
	C1035.004395,560.316895 1036.728027,560.316895 1038.734863,560.316895 
	C1038.734863,580.024231 1038.734863,599.725586 1038.734863,619.722656 
	C1036.993896,619.722656 1035.265015,619.722656 1032.979004,619.722656 
	C1032.979004,603.991333 1032.979004,588.251648 1032.979004,572.015503 
z"/>
<path fill="#666B71" opacity="1.000000" stroke="none" 
	d="
M357.987000,591.351562 
	C356.441406,586.919861 354.918396,582.853394 352.765381,577.104797 
	C355.049133,578.619934 356.894531,579.152466 357.379944,580.273804 
	C361.997620,590.940552 366.384552,601.707214 371.157898,613.216980 
	C372.548492,611.557617 374.442627,610.087646 375.285828,608.158386 
	C379.614594,598.254211 383.673096,588.231934 387.940216,577.976501 
	C389.018311,578.054626 390.452484,578.158508 391.683075,578.247681 
	C386.390717,591.209351 381.099304,603.931519 376.044830,616.747131 
	C375.030823,619.318237 373.643982,620.890015 371.108643,619.869995 
	C369.902405,619.384644 369.236176,617.363342 368.502533,615.946045 
	C367.573303,614.151001 366.800751,612.272766 366.002045,610.412659 
	C363.328003,604.184937 360.672333,597.949402 357.987000,591.351562 
z"/>
<path fill="#64696F" opacity="1.000000" stroke="none" 
	d="
M445.975525,602.998535 
	C445.975494,588.551392 445.975494,574.604004 445.975494,560.300171 
	C447.615936,560.190491 449.008636,560.097351 450.715515,559.983215 
	C450.715515,579.969788 450.715515,599.678528 450.715515,619.765808 
	C449.363922,619.852905 447.965881,619.942993 445.975525,620.071289 
	C445.975525,614.370850 445.975525,608.934631 445.975525,602.998535 
z"/>
<path fill="#666B71" opacity="1.000000" stroke="none" 
	d="
M1052.025513,578.019653 
	C1053.324097,579.209595 1054.842773,580.384338 1054.885254,581.610229 
	C1055.121216,588.417114 1054.993652,595.236511 1054.999634,602.051575 
	C1055.011230,615.261780 1060.382812,618.728333 1072.203613,617.001038 
	C1073.069336,616.874512 1073.936890,616.759949 1075.348755,616.564331 
	C1070.312988,622.015808 1064.617432,622.080933 1058.932251,619.852112 
	C1053.930786,617.891235 1051.246582,613.692749 1051.014160,608.218079 
	C1050.622314,598.987244 1050.280151,589.753479 1050.055786,580.517578 
	C1050.035889,579.700500 1051.036987,578.858521 1052.025513,578.019653 
z"/>
<path fill="#656A70" opacity="1.000000" stroke="none" 
	d="
M892.325256,579.348694 
	C896.113342,576.164429 900.316162,574.877258 904.841003,577.454956 
	C910.052612,580.423950 915.114990,583.624878 915.043823,590.798401 
	C914.949890,600.268921 915.020691,609.741150 915.020691,619.611755 
	C913.395020,619.611755 911.902039,619.611755 909.994141,619.611755 
	C909.994141,610.946167 910.133545,602.331482 909.937561,593.724365 
	C909.833618,589.158813 909.832642,583.911804 904.940491,581.741699 
	C901.666687,580.289490 897.642883,580.527832 893.337769,579.849487 
	C892.588928,579.575745 892.457092,579.462219 892.325256,579.348694 
z"/>
<path fill="#666B71" opacity="1.000000" stroke="none" 
	d="
M754.889648,617.005371 
	C756.109619,616.864136 756.960266,616.730469 758.330383,616.515137 
	C750.904236,622.236145 746.038208,622.312927 739.076294,618.112793 
	C734.837219,615.555542 734.346619,611.398438 734.161316,607.591309 
	C733.694580,597.999939 734.006775,588.370605 734.006775,578.569458 
	C736.685303,577.505066 738.071838,577.772461 738.030884,581.017944 
	C737.932434,588.817993 737.943542,596.620728 738.017395,604.421326 
	C738.079285,610.963501 741.487427,616.310242 746.316467,617.033630 
	C748.990051,617.434143 751.781799,617.045715 754.889648,617.005371 
z"/>
<path fill="#656A70" opacity="1.000000" stroke="none" 
	d="
M618.558472,584.034912 
	C613.800659,595.499634 617.037720,607.717957 615.733459,619.758423 
	C614.264648,619.758423 612.873779,619.758423 611.230225,619.758423 
	C611.230225,605.961182 611.230225,592.258057 611.230225,578.284180 
	C612.728271,578.284180 614.125916,578.284180 615.724365,578.284180 
	C615.724365,580.014160 615.724365,581.703613 615.724365,583.767273 
	C616.308594,583.824951 617.240173,583.916870 618.558472,584.034912 
z"/>
<path fill="#666B71" opacity="1.000000" stroke="none" 
	d="
M1085.998779,593.004272 
	C1085.998291,601.300842 1086.093262,609.100525 1085.897949,616.892883 
	C1085.867432,618.106384 1084.512817,619.286621 1083.770630,620.482239 
	C1083.279785,620.256897 1082.789062,620.031555 1082.298340,619.806213 
	C1082.134155,618.052856 1081.969971,616.299500 1081.768066,614.142395 
	C1080.233887,614.324585 1078.788330,614.496338 1077.367188,614.665100 
	C1077.230103,614.222351 1076.957275,613.777039 1077.068481,613.637207 
	C1083.380249,605.699646 1080.341064,596.363586 1080.946655,587.588989 
	C1081.150513,584.634583 1080.978882,581.654236 1080.978882,578.328735 
	C1082.588501,578.200134 1083.975586,578.089355 1085.998779,577.927734 
	C1085.998779,582.991821 1085.998779,587.748352 1085.998779,593.004272 
z"/>
<path fill="#656A70" opacity="1.000000" stroke="none" 
	d="
M883.929138,582.253174 
	C885.029663,583.310669 886.215454,583.980896 886.331726,584.046570 
	C885.537659,587.888489 884.273987,591.542480 884.121826,595.242249 
	C883.788513,603.347839 884.018616,611.476624 884.018616,619.790100 
	C882.199463,619.790100 880.805725,619.790100 879.203125,619.790100 
	C879.203125,605.972107 879.203125,592.372986 879.203125,578.373718 
	C880.534790,578.227478 881.918762,578.075439 883.707764,577.878967 
	C883.823303,579.381653 883.918884,580.623718 883.929138,582.253174 
z"/>
<path fill="#0063B5" opacity="1.000000" stroke="none" 
	d="
M363.091766,121.523376 
	C363.442230,122.646294 363.964203,124.228897 363.965027,125.811783 
	C363.999146,190.900803 363.986389,255.989853 363.764343,321.543640 
	C363.549133,322.008423 363.164398,322.007416 363.164398,322.007416 
	C363.109589,317.355682 363.007477,312.703979 363.007172,308.052246 
	C363.003204,246.029236 363.013458,184.006210 363.091766,121.523376 
z"/>
<path fill="#666B72" opacity="1.000000" stroke="none" 
	d="
M766.089783,578.104370 
	C767.362915,578.908813 768.882080,579.777893 768.892578,580.664734 
	C769.045959,593.633301 768.997986,606.604187 768.997986,619.737305 
	C768.018616,619.854309 766.978333,620.189026 766.837952,619.963562 
	C765.004639,617.018005 761.068542,612.699280 761.935181,611.205566 
	C766.398376,603.513306 764.445618,595.418640 765.000854,587.504211 
	C765.218933,584.395752 765.423462,581.286316 766.089783,578.104370 
z"/>
<path fill="#0045A5" opacity="1.000000" stroke="none" 
	d="
M363.095581,322.471313 
	C363.164398,322.007416 363.549133,322.008423 363.740784,322.012848 
	C363.963257,323.074982 363.994049,324.132660 364.052795,325.586029 
	C364.053833,374.277008 364.030029,422.572296 363.987946,470.867615 
	C363.986359,472.687225 363.807526,474.506714 363.432922,476.627563 
	C363.103027,449.520538 363.030640,422.112244 363.006287,394.703918 
	C362.985016,370.781036 363.017853,346.858093 363.095581,322.471313 
z"/>
<path fill="#0040A4" opacity="1.000000" stroke="none" 
	d="
M377.524902,491.913727 
	C378.309296,491.562836 379.553406,491.036346 380.797974,491.035248 
	C427.314240,490.993774 473.830505,490.999725 520.346802,491.012573 
	C521.000061,491.012756 521.653320,491.182404 522.611816,491.545044 
	C504.595367,491.878052 486.273651,491.976074 467.951874,491.991608 
	C437.962891,492.017029 407.973877,491.988770 377.524902,491.913727 
z"/>
<path fill="#656A70" opacity="1.000000" stroke="none" 
	d="
M628.123657,581.002563 
	C626.092102,581.554260 624.502014,582.184021 622.862671,582.634460 
	C621.709900,582.951172 620.490234,583.024048 619.300415,583.205750 
	C619.138000,582.752258 618.975586,582.298767 618.813232,581.845276 
	C621.984619,579.986023 625.029236,577.844666 628.362793,576.346130 
	C631.759460,574.819214 633.962952,577.073608 633.671021,581.345947 
	C631.962097,581.229309 630.253052,581.116638 628.123657,581.002563 
z"/>
<path fill="#656A70" opacity="1.000000" stroke="none" 
	d="
M892.894287,579.884277 
	C892.211304,580.425293 891.354797,580.771301 890.498352,581.117310 
	C890.411072,580.904114 890.323792,580.690857 890.236450,580.477661 
	C890.769714,580.223877 891.302979,579.970093 892.080750,579.532471 
	C892.457092,579.462219 892.588928,579.575745 892.894287,579.884277 
z"/>
<path fill="#FFFFFF" opacity="1.000000" stroke="none" 
	d="
M633.888428,318.492310 
	C632.875549,325.405334 632.142700,331.897888 630.922668,338.297516 
	C624.531250,371.821014 607.914795,398.343933 577.329285,414.851593 
	C566.543030,420.673187 554.650513,423.295319 542.513245,424.959930 
	C511.875336,429.161926 481.100433,426.447266 450.393188,426.962189 
	C442.277649,427.098297 436.058167,419.167664 436.048126,409.846649 
	C436.018707,382.540192 436.026917,355.233643 435.962280,327.460632 
	C435.946472,326.234650 435.988770,325.475189 436.004944,323.972290 
	C435.930664,322.486908 435.882507,321.744965 435.906860,320.565338 
	C435.940369,317.765442 435.901337,315.403290 435.862274,313.041107 
	C435.922333,286.286530 435.996674,259.531982 436.036804,232.777374 
	C436.058746,218.151627 436.022858,203.525787 435.995026,188.196747 
	C435.977020,187.493515 435.988953,187.003342 435.988953,187.003342 
	C440.308380,175.123489 443.450470,172.965912 456.532043,172.982498 
	C479.000946,173.010971 501.494415,172.412949 523.932251,173.267654 
	C548.893677,174.218536 573.007874,179.119705 593.376343,195.101395 
	C602.542175,202.293182 610.004089,211.080627 616.015259,221.068741 
	C626.596191,238.650116 631.829041,257.905243 633.025146,278.213135 
	C633.805237,291.457184 633.669312,304.755157 633.888428,318.492310 
z"/>
<path fill="#246BB7" opacity="1.000000" stroke="none" 
	d="
M435.598267,313.332581 
	C435.901337,315.403290 435.940369,317.765442 435.702240,320.565643 
	C435.425049,321.003662 435.015747,321.008057 435.015747,321.008057 
	C435.121887,318.546722 435.228058,316.085358 435.598267,313.332581 
z"/>
<path fill="#2A54A8" opacity="1.000000" stroke="none" 
	d="
M435.012848,321.335388 
	C435.015747,321.008057 435.425049,321.003662 435.629700,321.003357 
	C435.882507,321.744965 435.930664,322.486908 435.926483,323.598450 
	C435.586060,323.199646 435.298004,322.431152 435.012848,321.335388 
z"/>
<path fill="#246BB7" opacity="1.000000" stroke="none" 
	d="
M435.825958,187.081116 
	C435.988953,187.003342 435.977020,187.493515 435.918701,187.731659 
	C435.719574,187.792007 435.562897,187.623276 435.451935,187.428497 
	C435.430511,187.390915 435.588013,187.251389 435.825958,187.081116 
z"/>
<path fill="#FFFFFF" opacity="1.000000" stroke="none" 
	d="
M273.619568,613.998901 
	C268.548553,614.011658 263.935242,614.011658 259.058746,614.011658 
	C259.058746,597.552979 259.058746,581.531067 259.058746,564.554932 
	C265.785156,565.138000 272.279572,565.072144 278.474823,566.401001 
	C285.810425,567.974426 290.759674,572.789917 293.152283,580.248840 
	C295.517181,587.621521 294.946503,603.255371 287.330994,608.012329 
	C283.258301,610.556274 278.516876,612.029602 273.619568,613.998901 
z"/>
<path fill="#FFFFFF" opacity="1.000000" stroke="none" 
	d="
M518.128174,602.396118 
	C517.541992,596.209717 518.210449,590.622742 522.348145,586.274780 
	C529.120483,579.158264 539.825867,580.199646 545.155823,588.843445 
	C550.934448,598.214905 547.584839,613.084900 535.160461,615.643738 
	C527.799927,617.159668 520.798767,612.024597 518.128174,602.396118 
z"/>
<path fill="#FFFFFF" opacity="1.000000" stroke="none" 
	d="
M1122.270386,582.066101 
	C1134.030029,586.829956 1134.895874,598.250122 1131.636597,606.806030 
	C1129.554443,612.271729 1124.845215,615.627869 1118.961914,615.827576 
	C1113.061035,616.027954 1108.466064,612.859009 1105.856201,607.549744 
	C1102.845703,601.425354 1102.711182,595.151245 1106.230103,589.067017 
	C1109.747192,582.986328 1115.143799,581.009827 1122.270386,582.066101 
z"/>
<path fill="#FFFFFF" opacity="1.000000" stroke="none" 
	d="
M786.558044,608.101929 
	C784.023315,601.589905 783.151306,595.319885 786.796631,589.341431 
	C789.677002,584.617554 793.512939,581.337830 799.678284,581.738525 
	C805.353210,582.107422 809.350647,584.751831 811.944275,589.620361 
	C817.760925,600.539001 812.655762,612.963745 801.354736,615.560486 
	C796.175110,616.750610 790.712830,614.055359 786.558044,608.101929 
z"/>
<path fill="#FFFFFF" opacity="1.000000" stroke="none" 
	d="
M468.582764,588.916626 
	C477.663727,576.197876 492.791290,582.282959 496.243530,591.252197 
	C499.440735,599.558777 496.178528,610.280762 488.640106,614.187744 
	C482.972778,617.124939 476.488403,616.516174 471.636383,611.991028 
	C466.696320,607.383728 465.127472,601.454956 466.535248,594.842773 
	C466.944611,592.919983 467.714233,591.073853 468.582764,588.916626 
z"/>
<path fill="#FFFFFF" opacity="1.000000" stroke="none" 
	d="
M583.663513,581.850952 
	C590.349915,583.128479 593.912231,587.022522 594.761841,593.773560 
	C585.892822,593.773560 577.057190,593.773560 568.197388,593.773560 
	C569.009521,585.467590 573.737915,581.779541 583.663513,581.850952 
z"/>
<path fill="#FFFFFF" opacity="1.000000" stroke="none" 
	d="
M836.084167,591.657471 
	C839.063293,584.756348 843.522827,581.091980 851.176575,581.731689 
	C857.436768,582.254944 860.333008,586.225281 862.649536,591.163818 
	C862.969299,591.845642 862.828064,592.743652 862.942688,594.010864 
	C854.318420,594.010864 845.914490,594.045227 837.512756,593.927307 
	C836.996948,593.920105 836.497986,592.709717 836.084167,591.657471 
z"/>
<path fill="#FFFFFF" opacity="1.000000" stroke="none" 
	d="
M329.709839,581.832520 
	C337.350067,583.226929 340.913483,587.180298 340.741180,593.836731 
	C331.998810,593.836731 323.248962,593.836731 314.491241,593.836731 
	C315.371552,585.674561 320.047699,581.886536 329.709839,581.832520 
z"/>
<path fill="#FFFFFF" opacity="1.000000" stroke="none" 
	d="
M424.646301,584.086792 
	C426.913574,587.124939 428.867310,589.933350 431.529938,593.760803 
	C420.905579,593.760803 412.079834,593.760803 403.229889,593.760803 
	C404.112305,583.722717 414.429474,578.248352 424.646301,584.086792 
z"/>
</svg>